<svg width="32" height="31" viewBox="0 0 32 31" fill="none" xmlns="http://www.w3.org/2000/svg">
<rect width="32" height="31" rx="15.5" fill="#F2F2F2"/>
<path d="M16 24.2498C17.3807 24.2498 18.5 23.1305 18.5 21.7498C18.5 21.5077 18.2893 21.3311 18.0472 21.3284L13.9628 21.2821C13.7207 21.2793 13.5061 21.4508 13.5006 21.6928C13.5002 21.7117 13.5 21.7307 13.5 21.7498C13.5 23.1305 14.6193 24.2498 16 24.2498Z" fill="#171717"/>
<path d="M10.166 13C10.166 9.77834 12.7777 6.75 15.9993 6.75C19.221 6.75 21.8327 9.77834 21.8327 13V15.0506C21.8327 16.1315 22.2949 17.1609 23.1029 17.879C23.9698 18.6497 23.4247 20.0833 22.2648 20.0833H9.73391C8.57397 20.0833 8.02889 18.6497 8.89584 17.879C9.70376 17.1609 10.166 16.1315 10.166 15.0506V13Z" fill="#171717"/>
</svg>
