<svg width="25" height="25" viewBox="0 0 25 25" fill="none" xmlns="http://www.w3.org/2000/svg">
<g clip-path="url(#clip0_43_5893)">
<path d="M1.95563 23.8596L2.00549 23.8559L1.95563 23.8596C2.00603 24.5269 2.56412 25.0499 3.22756 25.0499H21.5381C22.2017 25.0499 22.7597 24.5267 22.8099 23.8595L23.9211 9.10441C24.076 7.04665 22.6797 5.20297 20.672 4.81641L17.4972 4.20529C16.7188 4.05542 16.1532 3.36536 16.1532 2.56378V1.23817C16.1532 0.528259 15.5814 -0.05 14.8777 -0.05H9.88797C9.18412 -0.05 8.61247 0.528346 8.61247 1.23817V2.56378C8.61247 3.36528 8.04687 4.05533 7.26857 4.20529C7.26857 4.20529 7.26856 4.20529 7.26856 4.20529L4.09351 4.81641L4.09351 4.81641C2.08595 5.20297 0.689596 7.04665 0.844539 9.10441L1.95563 23.8596ZM4.38329 11.783L4.38329 11.783L6.44634 20.901L5.86487 23.7117H3.2741L2.16657 9.00295C2.0627 7.6241 2.99828 6.38989 4.34181 6.13107C4.34181 6.13107 4.34181 6.13106 4.34181 6.13106L7.51686 5.51995L7.51687 5.51995C8.92029 5.24966 9.9383 4.00621 9.9383 2.56378L9.93798 1.28842L14.8273 1.28818V2.56378C14.8273 4.0063 15.8453 5.24966 17.2488 5.51995L20.4237 6.13107C21.7673 6.38981 22.7029 7.62409 22.599 9.00295L21.4916 23.7116H18.9005L18.3191 20.901L20.3821 11.783C20.4635 11.4233 20.2408 11.0642 19.8836 10.9817C19.5262 10.8989 19.1709 11.1252 19.0895 11.4852L16.9942 20.7456C16.9729 20.8396 16.972 20.9371 16.9916 21.0314L17.546 23.7117L7.21937 23.7118L7.77384 21.0314L7.72488 21.0213L7.77384 21.0314C7.79334 20.9371 7.79246 20.8396 7.77119 20.7456L5.67584 11.4851C5.5944 11.1252 5.23948 10.8991 4.88179 10.9817C4.52456 11.0642 4.30197 11.4233 4.38329 11.783Z" fill="black" stroke="black" stroke-width="0.1"/>
<path d="M12.3829 7.28574C12.056 7.28574 11.7926 7.55332 11.7926 7.88111V18.6096C11.7926 18.9373 12.056 19.2049 12.3829 19.2049C12.7098 19.2049 12.9732 18.9373 12.9732 18.6096V7.88111C12.9732 7.55324 12.7099 7.28574 12.3829 7.28574Z" fill="black" stroke="black" stroke-width="0.2"/>
</g>
<defs>
<clipPath id="clip0_43_5893">
<rect width="25" height="25" fill="white"/>
</clipPath>
</defs>
</svg>
