<svg width="25" height="25" viewBox="0 0 25 25" fill="none" xmlns="http://www.w3.org/2000/svg">
<g clip-path="url(#clip0_43_5874)">
<path d="M18.9698 3.11285H17.5253C16.8262 3.11285 16.2574 2.54093 16.2574 1.838V0H8.62146V1.838C8.62146 2.54093 8.05264 3.11285 7.35353 3.11285H5.90902C3.44448 3.11285 1.43945 5.12883 1.43945 7.60682V25H23.4395V7.60682C23.4394 5.12883 21.4344 3.11285 18.9698 3.11285ZM21.9825 23.5352H20.3557C20.2799 22.8464 20.0966 22.1776 19.8079 21.5391C19.3923 20.6197 19.1816 19.6415 19.1816 18.6317V16.3789C20.1251 15.5648 20.6817 14.3748 20.6908 13.1316C20.7036 11.8919 20.1872 10.703 19.2739 9.86947C18.8175 9.45277 18.5556 8.8558 18.5556 8.23167H17.0988C17.0988 9.26805 17.5347 10.2603 18.2947 10.9541C18.9002 11.5066 19.2425 12.2947 19.234 13.1163C19.2263 13.8579 18.9346 14.5613 18.4128 15.0973C17.8909 15.6332 17.1977 15.9408 16.4609 15.9637C15.8367 15.983 15.2387 15.8037 14.7297 15.445L13.8936 16.6446C14.6611 17.1863 15.5703 17.4576 16.5057 17.4278C16.9251 17.4148 17.3349 17.3411 17.7248 17.2112V18.6317C17.7248 19.8521 17.9794 21.0342 18.4817 22.1453C18.6835 22.5915 18.8191 23.0567 18.8873 23.5352H13.1679V22.8026H11.711V23.5352H5.99162C6.0598 23.0567 6.19539 22.5914 6.39717 22.1452C6.89946 21.0342 7.15413 19.8521 7.15413 18.6317V17.2111C7.54404 17.341 7.95382 17.4148 8.37316 17.4278C9.30858 17.4575 10.2178 17.1862 10.9853 16.6445L10.1492 15.4449C9.64022 15.8036 9.04066 15.9832 8.41803 15.9636C7.68118 15.9408 6.98804 15.6331 6.46613 15.0972C5.94427 14.5613 5.6526 13.8578 5.64493 13.1163C5.63643 12.2946 5.97875 11.5065 6.58419 10.954C7.34425 10.2602 7.78016 9.26796 7.78016 8.23162H6.32326C6.32326 8.8558 6.06141 9.45277 5.60496 9.86942C4.69168 10.7029 4.17531 11.8919 4.18813 13.1315C4.19716 14.3747 4.75384 15.5648 5.69728 16.3789V18.6317C5.69728 19.6415 5.48652 20.6197 5.07096 21.5391C4.7823 22.1776 4.59897 22.8464 4.52317 23.5352H2.8963V7.60682C2.8963 5.93655 4.24777 4.5777 5.90897 4.5777H7.35348C8.85593 4.5777 10.0783 3.34869 10.0783 1.838V1.46485H14.8004V1.838C14.8004 3.34869 16.0228 4.5777 17.5252 4.5777H18.9697C20.6309 4.5777 21.9824 5.93655 21.9824 7.60682V23.5352H21.9825Z" fill="black"/>
</g>
<defs>
<clipPath id="clip0_43_5874">
<rect width="25" height="25" fill="white"/>
</clipPath>
</defs>
</svg>
