<svg width="31" height="30" viewBox="0 0 31 30" fill="none" xmlns="http://www.w3.org/2000/svg">
<path d="M23.3828 15.8125V20.4375C23.3828 24.3375 19.7453 27.5 15.2578 27.5C10.7703 27.5 7.13281 24.3375 7.13281 20.4375V15.8125C7.13281 19.7125 10.7703 22.5 15.2578 22.5C19.7453 22.5 23.3828 19.7125 23.3828 15.8125Z" stroke="#706148" stroke-width="1.5" stroke-linecap="round" stroke-linejoin="round"/>
<path d="M23.3828 9.5625C23.3828 10.7 23.0703 11.75 22.5203 12.65C21.1828 14.85 18.4328 16.25 15.2578 16.25C12.0828 16.25 9.33282 14.85 7.99532 12.65C7.44532 11.75 7.13281 10.7 7.13281 9.5625C7.13281 7.6125 8.0453 5.85 9.5078 4.575C10.9828 3.2875 13.0078 2.5 15.2578 2.5C17.5078 2.5 19.5328 3.2875 21.0078 4.5625C22.4703 5.85 23.3828 7.6125 23.3828 9.5625Z" stroke="#706148" stroke-width="1.5" stroke-linecap="round" stroke-linejoin="round"/>
<path d="M23.3828 9.5625V15.8125C23.3828 19.7125 19.7453 22.5 15.2578 22.5C10.7703 22.5 7.13281 19.7125 7.13281 15.8125V9.5625C7.13281 5.6625 10.7703 2.5 15.2578 2.5C17.5078 2.5 19.5328 3.2875 21.0078 4.5625C22.4703 5.85 23.3828 7.6125 23.3828 9.5625Z" stroke="#706148" stroke-width="1.5" stroke-linecap="round" stroke-linejoin="round"/>
</svg>
