<svg width="30" height="30" viewBox="0 0 30 30" fill="none" xmlns="http://www.w3.org/2000/svg">
<path d="M5.97622 13.6451C5.97622 7.95043 10.5927 3.33398 16.2873 3.33398C21.982 3.33398 26.5984 7.95043 26.5984 13.6451C26.5984 15.1273 26.2857 16.5365 25.7225 17.8103L26.6004 23.9552L21.3343 22.6387C19.8425 23.4777 18.1208 23.9562 16.2873 23.9562M3.39966 20.0895C3.39966 21.0159 3.59512 21.8967 3.94704 22.6928L3.39844 26.5334L6.68944 25.7105C7.62175 26.2349 8.6977 26.534 9.84349 26.534C13.4023 26.534 16.2873 23.6487 16.2873 20.0895C16.2873 16.5304 13.4023 13.6451 9.84349 13.6451C6.28466 13.6451 3.39966 16.5304 3.39966 20.0895Z" stroke="#706148" stroke-width="1.5" stroke-linecap="round" stroke-linejoin="round"/>
</svg>
