<svg width="25" height="25" viewBox="0 0 25 25" fill="#000000" xmlns="http://www.w3.org/2000/svg">
<g clip-path="url(#clip0_43_5867)">
<path d="M12.6387 0C7.95188 0 4.13884 3.7511 4.13884 8.3618V18.125C4.09798 24.0784 11.5174 27.2463 15.9026 23.1539C17.202 21.9609 17.985 20.3432 18.1074 18.5989L18.2122 17.1068L20.2256 13.1856C20.8229 12.0224 21.1387 10.7186 21.1387 9.41549V8.36185C21.1387 3.7511 17.3256 0 12.6387 0ZM19.6494 9.41544C19.6494 10.4903 19.389 11.5655 18.8964 12.525L16.7472 16.7104L16.6217 18.498C16.4794 21.2664 13.9487 23.5899 11.1315 23.5389C8.09694 23.5389 5.62817 21.1103 5.62817 18.125V8.3618C5.98172 -0.777372 19.2992 -0.770388 19.6494 8.3618V9.41544H19.6494Z" fill="black"/>
<path d="M12.6383 3.02832C9.59395 3.02832 7.11719 5.4649 7.11719 8.45982V10.9217L7.81069 11.7013C8.26636 12.2136 8.26636 12.9863 7.81069 13.4986L7.11719 14.2783V15.7681C7.28756 20.7426 14.3526 21.2279 15.2294 16.3362L15.318 15.7269L17.4881 11.8033C17.9274 11.0092 18.1595 10.1115 18.1595 9.2074V8.45982C18.1595 5.46485 15.6827 3.02832 12.6383 3.02832ZM16.6702 9.20735C16.6702 9.86761 16.5007 10.5231 16.1799 11.1031L13.8818 15.2582L13.7551 16.1285C13.574 17.3741 12.4728 18.3133 11.1938 18.3133C9.76715 18.3133 8.60646 17.1715 8.60646 15.768V14.8287L8.93147 14.4633C9.87632 13.401 9.87632 11.7989 8.93147 10.7366L8.60646 10.3712V9.61821C8.70813 6.99014 12.5377 6.99219 12.6384 9.61821V10.6464H14.1277V9.61821C14.1603 7.12864 11.4027 5.41206 9.13669 6.49524C11.1672 3.01098 16.6417 4.3885 16.6702 8.45986V9.20735Z" fill="black"/>
</g>
<defs>
<clipPath id="clip0_43_5867">
<rect width="25" height="25" fill="white"/>
</clipPath>
</defs>
</svg>
