<svg width="25" height="12" viewBox="0 0 25 12" fill="none" xmlns="http://www.w3.org/2000/svg">
<path d="M0.0105237 11H6.52052V9.264H2.08252V6.492H5.72252V4.756H2.08252V2.362H6.36652V0.625999H0.0105237V11ZM10.8818 11H12.9538V2.362H15.8938V0.625999H7.9698V2.362H10.8818V11ZM21.5643 11.196C22.9083 11.196 24.0143 10.664 24.8683 9.67L23.7763 8.382C23.2163 8.984 22.5303 9.404 21.6343 9.404C19.9963 9.404 18.9323 8.046 18.9323 5.792C18.9323 3.566 20.1083 2.222 21.6763 2.222C22.4603 2.222 23.0623 2.586 23.5943 3.09L24.6723 1.774C24.0003 1.074 22.9503 0.444 21.6343 0.444C19.0163 0.444 16.8183 2.446 16.8183 5.862C16.8183 9.32 18.9463 11.196 21.5643 11.196Z" fill="black"/>
</svg>
