<svg width="29" height="29" viewBox="0 0 29 29" fill="none" xmlns="http://www.w3.org/2000/svg">
<path d="M2.5918 20.8379H14.2585" stroke="#706148" stroke-width="1.5" stroke-miterlimit="10" stroke-linecap="round" stroke-linejoin="round"/>
<path d="M5.18176 16.6836H11.6685C13.7452 16.6836 14.2585 17.1969 14.2585 19.2503V24.0453C14.2585 26.0986 13.7452 26.6119 11.6685 26.6119H5.18176C3.1051 26.6119 2.5918 26.0986 2.5918 24.0453V19.2503C2.5918 17.1969 3.1051 16.6836 5.18176 16.6836Z" stroke="#706148" stroke-width="1.5" stroke-linecap="round" stroke-linejoin="round"/>
<path d="M25.9245 18.4336C25.9245 22.9486 22.2728 26.6003 17.7578 26.6003L18.9828 24.5586" stroke="#706148" stroke-width="1.5" stroke-linecap="round" stroke-linejoin="round"/>
<path d="M2.5918 11.4342C2.5918 6.91925 6.24346 3.26758 10.7585 3.26758L9.53348 5.30924" stroke="#706148" stroke-width="1.5" stroke-linecap="round" stroke-linejoin="round"/>
<path d="M21.8418 13.7676C24.7413 13.7676 27.0918 11.4171 27.0918 8.51758C27.0918 5.61808 24.7413 3.26758 21.8418 3.26758C18.9423 3.26758 16.5918 5.61808 16.5918 8.51758C16.5918 11.4171 18.9423 13.7676 21.8418 13.7676Z" stroke="#706148" stroke-width="1.5" stroke-linecap="round" stroke-linejoin="round"/>
</svg>
