<svg width="26" height="17" viewBox="0 0 26 17" fill="#000000" xmlns="http://www.w3.org/2000/svg">
<path d="M12.9988 11.7116C14.6491 11.7116 15.9918 10.3676 15.9918 8.71562C15.8413 4.7466 10.1557 4.74766 10.0059 8.71567C10.0059 10.3676 11.3485 11.7116 12.9988 11.7116ZM12.9988 7.24484C13.809 7.24484 14.4682 7.90466 14.4682 8.71567C14.3943 10.6642 11.603 10.6637 11.5295 8.71567C11.5295 7.90461 12.1886 7.24484 12.9988 7.24484Z" fill="black"/>
<path d="M26 4.73844H24.4764V5.30914C24.4764 5.94649 24.3015 6.55689 23.9745 7.08555C23.6201 6.7308 23.214 6.34897 22.7591 5.9591C23.3389 5.15053 23.6516 4.18365 23.6516 3.16869V2.75574H22.128V3.16869C22.128 3.83481 21.9306 4.47048 21.5634 5.00889C21.1457 4.70224 20.7226 4.4173 20.2952 4.15493C20.8192 3.38637 21.101 2.47893 21.101 1.52817V1.26666H19.5774V1.52817C19.5774 2.2164 19.3582 2.87088 18.9529 3.41184C18.5573 3.21632 18.1597 3.03997 17.752 2.88054C18.1974 2.18143 18.436 1.3689 18.436 0.519608V0.400344H16.9124V0.519608C16.9124 1.20988 16.6713 1.86298 16.2289 2.38259C15.8513 2.28305 15.4728 2.2009 15.0939 2.13618C15.4366 1.51419 15.6187 0.812176 15.6187 0.0821529V0H14.0951V0.0821529C14.0951 0.787419 13.8304 1.45191 13.3482 1.96206C11.4502 1.91016 9.58133 2.28493 7.74058 3.0752C4.77871 4.21487 1.29851 7.53642 0.313962 9.03851L0 9.48248L0.317213 9.92415C0.369269 9.99664 1.61694 11.7193 3.78862 13.4548C5.06941 14.4783 6.40931 15.2952 7.7711 15.8827C11.2172 17.3724 14.7802 17.3724 18.2263 15.8827C19.5881 15.2952 20.928 14.4783 22.2087 13.4548C24.3804 11.7193 25.6281 9.99664 25.6801 9.92415L25.9997 9.47907L25.6801 9.03399C25.6589 9.0044 25.4384 8.69983 25.0372 8.23167C25.6622 7.39103 26 6.37601 26 5.30904L26 4.73844ZM12.9987 3.48215C15.882 3.48215 18.2277 5.83022 18.2277 8.71646C17.9649 15.6509 8.03138 15.649 7.76952 8.71641C7.76957 5.83022 10.1154 3.48215 12.9987 3.48215ZM21.2249 12.2895C16.01 16.5155 9.98508 16.5137 4.77241 12.2895C3.38741 11.1878 2.39342 10.0728 1.90216 9.47632C2.65654 8.55124 4.61238 6.3815 7.4126 4.92242C4.3653 9.29646 7.63189 15.5275 12.9988 15.4758C18.3539 15.5277 21.6245 9.31746 18.5982 4.9423C19.4903 5.41087 20.3703 5.98899 21.2249 6.66878C22.6077 7.7687 23.6007 8.88183 24.0928 9.47907C23.6006 10.0765 22.6076 11.1896 21.2249 12.2895Z" fill="black"/>
</svg>
