<svg width="25" height="25" viewBox="0 0 25 25" fill="#000000" xmlns="http://www.w3.org/2000/svg">
<g clip-path="url(#clip0_43_5877)">
<path d="M21.4478 9.19184H21.3816V8.87856C20.9321 -2.96402 4.00113 -2.95502 3.55588 8.87856V9.19184H3.48964C2.0996 9.19184 0.96875 10.3257 0.96875 11.7195V12.9077C0.96875 14.3014 2.0996 15.4353 3.48964 15.4353H3.55592C3.56081 17.8967 4.56177 20.2053 6.26967 21.8745V25H7.73399V23.0343C7.90644 23.1438 8.08328 23.248 8.26447 23.3464L10.2853 24.4448C11.621 25.182 13.3166 25.1819 14.6523 24.4448L16.673 23.3464C16.8542 23.248 17.0311 23.1438 17.2035 23.0343V25H18.6678V21.8745C20.3757 20.2053 21.3766 17.8966 21.3816 15.4353H21.4479C22.8379 15.4353 23.9688 14.3014 23.9688 12.9077V11.7195C23.9687 10.3257 22.8378 9.19184 21.4478 9.19184ZM2.43303 12.9077V11.7195C2.43303 11.1353 2.90698 10.6601 3.48959 10.6601H3.55583V13.9671H3.48959C2.90698 13.9671 2.43303 13.4918 2.43303 12.9077ZM19.9172 15.4172C19.9172 18.1904 18.4067 20.7341 15.9751 22.0557L13.9544 23.154C13.0455 23.6556 11.8918 23.6556 10.983 23.154L8.96222 22.0557C6.53071 20.7341 5.0202 18.1904 5.0202 15.4172V8.87856C5.39585 -1.01834 19.5452 -1.01085 19.9172 8.87856L19.9172 15.4172ZM22.5044 12.9077C22.5044 13.4918 22.0304 13.9671 21.4478 13.9671H21.3816V10.6601H21.4478C22.0304 10.6601 22.5044 11.1353 22.5044 11.7195V12.9077Z" fill="black"/>
</g>
<defs>
<clipPath id="clip0_43_5877">
<rect width="25" height="25" fill="white"/>
</clipPath>
</defs>
</svg>
