<svg width="36" height="36" viewBox="0 0 36 36" fill="none" xmlns="http://www.w3.org/2000/svg">
<g clip-path="url(#clip0_43_15966)">
<path d="M18.0001 0C21.5602 0 25.0404 1.05569 28.0005 3.03357C30.9606 5.01145 33.2677 7.82269 34.6301 11.1118C35.9925 14.4009 36.349 18.0201 35.6544 21.5118C34.9599 25.0035 33.2455 28.2108 30.7282 30.7282C28.2108 33.2455 25.0035 34.9599 21.5118 35.6544C18.0201 36.349 14.4009 35.9925 11.1118 34.6301C7.82269 33.2677 5.01145 30.9606 3.03357 28.0005C1.05569 25.0404 0 21.5602 0 18.0001C0 13.2262 1.89644 8.6478 5.27212 5.27212C8.6478 1.89644 13.2262 0 18.0001 0V0Z" fill="#475993"/>
<path d="M22.3378 19.5159L22.8989 15.8575H19.388V13.4832C19.388 12.4822 19.8782 11.5068 21.4502 11.5068H23.0464V8.39209C22.1093 8.24054 21.1623 8.1578 20.213 8.14453C17.3218 8.14453 15.4323 9.89693 15.4323 13.0689V15.8575H12.2188V19.5159H15.4323V28.3608H19.3886V19.5159H22.3378Z" fill="white"/>
</g>
<defs>
<clipPath id="clip0_43_15966">
<rect width="36" height="36" fill="white"/>
</clipPath>
</defs>
</svg>
