<svg width="27" height="27" viewBox="0 0 27 27" fill="#000000" xmlns="http://www.w3.org/2000/svg">
<mask id="path-1-outside-1_43_5906" maskUnits="userSpaceOnUse" x="0" y="0" width="27" height="27" fill="black">
<rect fill="white" width="27" height="27"/>
<path d="M21.2869 1C19.9484 1 18.7006 1.55446 17.8083 2.53305C16.1968 1.53439 14.349 1 12.4288 1C12.4245 1 12.42 1 12.4156 1C11.897 1.00068 11.3763 1.04009 10.8679 1.11709C7.58872 1.61374 4.84548 3.80471 3.70869 6.83507C3.35589 7.77557 3.17703 8.73473 3.17703 9.68607C3.17703 12.0547 2.03638 13.2918 1.35648 13.8183C1.11213 14.0075 0.979806 14.3048 1.00251 14.6134C1.02527 14.9226 1.20003 15.1978 1.47 15.3496C1.72392 15.4924 2.01006 15.6296 2.28672 15.7624C2.53859 15.8833 2.89817 16.0558 3.06507 16.1655V16.9094C3.06507 17.1673 3.01585 17.4193 2.91872 17.6585C2.73029 18.1223 2.77849 18.6479 3.03972 19.0677C3.07039 19.4037 3.20613 19.7194 3.42694 19.972V20.557C3.42694 21.9003 4.51984 22.9932 5.86319 22.9932C6.98914 22.9932 8.10241 22.836 9.17324 22.5301L10.6476 25.7174C10.7302 25.8958 10.9067 26.0008 11.0912 26.0008C11.1598 26.0008 11.2295 25.9863 11.2959 25.9556C11.5406 25.8424 11.6472 25.5521 11.534 25.3074L10.1064 22.2215C10.8414 21.9449 11.5511 21.5961 12.2248 21.1774C12.4538 21.0351 12.5242 20.734 12.3818 20.505C12.2394 20.2759 11.9383 20.2056 11.7093 20.348C9.95285 21.4396 7.93126 22.0166 5.86314 22.0166C5.05833 22.0166 4.40353 21.3619 4.40353 20.557V19.7693C4.40353 19.6254 4.3401 19.4889 4.23014 19.3961C4.09 19.2778 4.00962 19.1048 4.00962 18.9215V18.9054C4.00962 18.7959 3.9728 18.6895 3.90508 18.6034C3.77646 18.44 3.74521 18.2187 3.82348 18.026C3.96821 17.6696 4.04161 17.294 4.04161 16.9094V16.0014C4.04161 15.5212 3.54008 15.2806 2.70915 14.8819C2.47389 14.769 2.2314 14.6527 2.0207 14.5382C2.84768 13.875 4.15362 12.3978 4.15362 9.68607C4.15362 8.85231 4.31153 8.00854 4.62307 7.17814C4.78469 6.74732 4.98328 6.33574 5.2142 5.94603C7.39335 6.59541 9.14223 8.23471 9.9254 10.382C10.4112 11.7138 11.2396 12.9025 12.3209 13.8194L13.1902 14.5564C13.2958 14.6459 13.4343 14.6863 13.5716 14.6678C13.7089 14.6492 13.8317 14.5732 13.9096 14.4588L14.6364 13.3913C14.8813 13.0315 15.2874 12.8167 15.7234 12.8167C16.4476 12.8167 17.0369 13.4059 17.0369 14.1302C17.0369 15.37 16.4816 16.5252 15.5135 17.2995C15.1664 17.5772 14.7053 17.6648 14.2805 17.5341C14.0227 17.4547 13.7494 17.5995 13.6701 17.8572C13.5908 18.115 13.7355 18.3882 13.9932 18.4675C14.2174 18.5365 14.4473 18.5702 14.6757 18.5702C15.1083 18.5702 15.5351 18.4487 15.9064 18.2157L17.9568 25.6423C18.0165 25.8588 18.213 26.0008 18.4271 26.0008C18.4702 26.0008 18.5139 25.995 18.5574 25.983C18.8173 25.9113 18.9699 25.6423 18.8981 25.3824L17.5085 20.3492C18.5141 19.7812 19.4128 19.0539 20.1801 18.1857C20.3587 17.9836 20.3397 17.675 20.1376 17.4964C19.9355 17.3179 19.6269 17.3369 19.4484 17.539C18.8074 18.2642 18.0654 18.8807 17.2398 19.3758L16.7215 17.4988C17.5502 16.5813 18.0135 15.3911 18.0135 14.1302C18.0135 12.8675 16.9861 11.8401 15.7226 11.8401C14.9639 11.8401 14.2561 12.2146 13.8291 12.8417L13.4077 13.4605L12.9524 13.0745C12.0001 12.267 11.2707 11.2202 10.8428 10.0474C9.98927 7.70726 8.12565 5.89857 5.78936 5.1048C7.04364 3.50461 8.90409 2.40223 11.0141 2.08269C11.4747 2.01292 11.9467 1.97722 12.4168 1.97659H12.4287C14.9008 1.97659 17.2433 2.9564 19.0253 4.73623C20.8102 6.5189 21.7932 8.86447 21.7931 11.3409C21.7931 12.2096 21.6743 13.0696 21.44 13.8972C21.3666 14.1566 21.5174 14.4265 21.7768 14.5C22.0364 14.5735 22.3062 14.4226 22.3797 14.1632C22.6384 13.2492 22.7696 12.2996 22.7697 11.3409C22.7697 10.9599 22.7479 10.5819 22.7065 10.2079C23.5777 9.93198 24.3608 9.40247 24.943 8.6877C25.6246 7.85077 26 6.79444 26 5.71321C26 3.11431 23.8858 1 21.2869 1V1ZM22.5498 9.23054C22.1408 7.29021 21.1697 5.49758 19.7155 4.04525C19.3697 3.69988 19.0043 3.38239 18.6227 3.09268C19.3226 2.3787 20.272 1.97659 21.2869 1.97659C23.3473 1.97659 25.0235 3.6528 25.0235 5.71311C25.0235 7.29465 24.0078 8.70489 22.5498 9.23054V9.23054Z"/>
</mask>
<path d="M21.2869 1C19.9484 1 18.7006 1.55446 17.8083 2.53305C16.1968 1.53439 14.349 1 12.4288 1C12.4245 1 12.42 1 12.4156 1C11.897 1.00068 11.3763 1.04009 10.8679 1.11709C7.58872 1.61374 4.84548 3.80471 3.70869 6.83507C3.35589 7.77557 3.17703 8.73473 3.17703 9.68607C3.17703 12.0547 2.03638 13.2918 1.35648 13.8183C1.11213 14.0075 0.979806 14.3048 1.00251 14.6134C1.02527 14.9226 1.20003 15.1978 1.47 15.3496C1.72392 15.4924 2.01006 15.6296 2.28672 15.7624C2.53859 15.8833 2.89817 16.0558 3.06507 16.1655V16.9094C3.06507 17.1673 3.01585 17.4193 2.91872 17.6585C2.73029 18.1223 2.77849 18.6479 3.03972 19.0677C3.07039 19.4037 3.20613 19.7194 3.42694 19.972V20.557C3.42694 21.9003 4.51984 22.9932 5.86319 22.9932C6.98914 22.9932 8.10241 22.836 9.17324 22.5301L10.6476 25.7174C10.7302 25.8958 10.9067 26.0008 11.0912 26.0008C11.1598 26.0008 11.2295 25.9863 11.2959 25.9556C11.5406 25.8424 11.6472 25.5521 11.534 25.3074L10.1064 22.2215C10.8414 21.9449 11.5511 21.5961 12.2248 21.1774C12.4538 21.0351 12.5242 20.734 12.3818 20.505C12.2394 20.2759 11.9383 20.2056 11.7093 20.348C9.95285 21.4396 7.93126 22.0166 5.86314 22.0166C5.05833 22.0166 4.40353 21.3619 4.40353 20.557V19.7693C4.40353 19.6254 4.3401 19.4889 4.23014 19.3961C4.09 19.2778 4.00962 19.1048 4.00962 18.9215V18.9054C4.00962 18.7959 3.9728 18.6895 3.90508 18.6034C3.77646 18.44 3.74521 18.2187 3.82348 18.026C3.96821 17.6696 4.04161 17.294 4.04161 16.9094V16.0014C4.04161 15.5212 3.54008 15.2806 2.70915 14.8819C2.47389 14.769 2.2314 14.6527 2.0207 14.5382C2.84768 13.875 4.15362 12.3978 4.15362 9.68607C4.15362 8.85231 4.31153 8.00854 4.62307 7.17814C4.78469 6.74732 4.98328 6.33574 5.2142 5.94603C7.39335 6.59541 9.14223 8.23471 9.9254 10.382C10.4112 11.7138 11.2396 12.9025 12.3209 13.8194L13.1902 14.5564C13.2958 14.6459 13.4343 14.6863 13.5716 14.6678C13.7089 14.6492 13.8317 14.5732 13.9096 14.4588L14.6364 13.3913C14.8813 13.0315 15.2874 12.8167 15.7234 12.8167C16.4476 12.8167 17.0369 13.4059 17.0369 14.1302C17.0369 15.37 16.4816 16.5252 15.5135 17.2995C15.1664 17.5772 14.7053 17.6648 14.2805 17.5341C14.0227 17.4547 13.7494 17.5995 13.6701 17.8572C13.5908 18.115 13.7355 18.3882 13.9932 18.4675C14.2174 18.5365 14.4473 18.5702 14.6757 18.5702C15.1083 18.5702 15.5351 18.4487 15.9064 18.2157L17.9568 25.6423C18.0165 25.8588 18.213 26.0008 18.4271 26.0008C18.4702 26.0008 18.5139 25.995 18.5574 25.983C18.8173 25.9113 18.9699 25.6423 18.8981 25.3824L17.5085 20.3492C18.5141 19.7812 19.4128 19.0539 20.1801 18.1857C20.3587 17.9836 20.3397 17.675 20.1376 17.4964C19.9355 17.3179 19.6269 17.3369 19.4484 17.539C18.8074 18.2642 18.0654 18.8807 17.2398 19.3758L16.7215 17.4988C17.5502 16.5813 18.0135 15.3911 18.0135 14.1302C18.0135 12.8675 16.9861 11.8401 15.7226 11.8401C14.9639 11.8401 14.2561 12.2146 13.8291 12.8417L13.4077 13.4605L12.9524 13.0745C12.0001 12.267 11.2707 11.2202 10.8428 10.0474C9.98927 7.70726 8.12565 5.89857 5.78936 5.1048C7.04364 3.50461 8.90409 2.40223 11.0141 2.08269C11.4747 2.01292 11.9467 1.97722 12.4168 1.97659H12.4287C14.9008 1.97659 17.2433 2.9564 19.0253 4.73623C20.8102 6.5189 21.7932 8.86447 21.7931 11.3409C21.7931 12.2096 21.6743 13.0696 21.44 13.8972C21.3666 14.1566 21.5174 14.4265 21.7768 14.5C22.0364 14.5735 22.3062 14.4226 22.3797 14.1632C22.6384 13.2492 22.7696 12.2996 22.7697 11.3409C22.7697 10.9599 22.7479 10.5819 22.7065 10.2079C23.5777 9.93198 24.3608 9.40247 24.943 8.6877C25.6246 7.85077 26 6.79444 26 5.71321C26 3.11431 23.8858 1 21.2869 1V1ZM22.5498 9.23054C22.1408 7.29021 21.1697 5.49758 19.7155 4.04525C19.3697 3.69988 19.0043 3.38239 18.6227 3.09268C19.3226 2.3787 20.272 1.97659 21.2869 1.97659C23.3473 1.97659 25.0235 3.6528 25.0235 5.71311C25.0235 7.29465 24.0078 8.70489 22.5498 9.23054V9.23054Z" fill="black"/>
<path d="M21.2869 1C19.9484 1 18.7006 1.55446 17.8083 2.53305C16.1968 1.53439 14.349 1 12.4288 1C12.4245 1 12.42 1 12.4156 1C11.897 1.00068 11.3763 1.04009 10.8679 1.11709C7.58872 1.61374 4.84548 3.80471 3.70869 6.83507C3.35589 7.77557 3.17703 8.73473 3.17703 9.68607C3.17703 12.0547 2.03638 13.2918 1.35648 13.8183C1.11213 14.0075 0.979806 14.3048 1.00251 14.6134C1.02527 14.9226 1.20003 15.1978 1.47 15.3496C1.72392 15.4924 2.01006 15.6296 2.28672 15.7624C2.53859 15.8833 2.89817 16.0558 3.06507 16.1655V16.9094C3.06507 17.1673 3.01585 17.4193 2.91872 17.6585C2.73029 18.1223 2.77849 18.6479 3.03972 19.0677C3.07039 19.4037 3.20613 19.7194 3.42694 19.972V20.557C3.42694 21.9003 4.51984 22.9932 5.86319 22.9932C6.98914 22.9932 8.10241 22.836 9.17324 22.5301L10.6476 25.7174C10.7302 25.8958 10.9067 26.0008 11.0912 26.0008C11.1598 26.0008 11.2295 25.9863 11.2959 25.9556C11.5406 25.8424 11.6472 25.5521 11.534 25.3074L10.1064 22.2215C10.8414 21.9449 11.5511 21.5961 12.2248 21.1774C12.4538 21.0351 12.5242 20.734 12.3818 20.505C12.2394 20.2759 11.9383 20.2056 11.7093 20.348C9.95285 21.4396 7.93126 22.0166 5.86314 22.0166C5.05833 22.0166 4.40353 21.3619 4.40353 20.557V19.7693C4.40353 19.6254 4.3401 19.4889 4.23014 19.3961C4.09 19.2778 4.00962 19.1048 4.00962 18.9215V18.9054C4.00962 18.7959 3.9728 18.6895 3.90508 18.6034C3.77646 18.44 3.74521 18.2187 3.82348 18.026C3.96821 17.6696 4.04161 17.294 4.04161 16.9094V16.0014C4.04161 15.5212 3.54008 15.2806 2.70915 14.8819C2.47389 14.769 2.2314 14.6527 2.0207 14.5382C2.84768 13.875 4.15362 12.3978 4.15362 9.68607C4.15362 8.85231 4.31153 8.00854 4.62307 7.17814C4.78469 6.74732 4.98328 6.33574 5.2142 5.94603C7.39335 6.59541 9.14223 8.23471 9.9254 10.382C10.4112 11.7138 11.2396 12.9025 12.3209 13.8194L13.1902 14.5564C13.2958 14.6459 13.4343 14.6863 13.5716 14.6678C13.7089 14.6492 13.8317 14.5732 13.9096 14.4588L14.6364 13.3913C14.8813 13.0315 15.2874 12.8167 15.7234 12.8167C16.4476 12.8167 17.0369 13.4059 17.0369 14.1302C17.0369 15.37 16.4816 16.5252 15.5135 17.2995C15.1664 17.5772 14.7053 17.6648 14.2805 17.5341C14.0227 17.4547 13.7494 17.5995 13.6701 17.8572C13.5908 18.115 13.7355 18.3882 13.9932 18.4675C14.2174 18.5365 14.4473 18.5702 14.6757 18.5702C15.1083 18.5702 15.5351 18.4487 15.9064 18.2157L17.9568 25.6423C18.0165 25.8588 18.213 26.0008 18.4271 26.0008C18.4702 26.0008 18.5139 25.995 18.5574 25.983C18.8173 25.9113 18.9699 25.6423 18.8981 25.3824L17.5085 20.3492C18.5141 19.7812 19.4128 19.0539 20.1801 18.1857C20.3587 17.9836 20.3397 17.675 20.1376 17.4964C19.9355 17.3179 19.6269 17.3369 19.4484 17.539C18.8074 18.2642 18.0654 18.8807 17.2398 19.3758L16.7215 17.4988C17.5502 16.5813 18.0135 15.3911 18.0135 14.1302C18.0135 12.8675 16.9861 11.8401 15.7226 11.8401C14.9639 11.8401 14.2561 12.2146 13.8291 12.8417L13.4077 13.4605L12.9524 13.0745C12.0001 12.267 11.2707 11.2202 10.8428 10.0474C9.98927 7.70726 8.12565 5.89857 5.78936 5.1048C7.04364 3.50461 8.90409 2.40223 11.0141 2.08269C11.4747 2.01292 11.9467 1.97722 12.4168 1.97659H12.4287C14.9008 1.97659 17.2433 2.9564 19.0253 4.73623C20.8102 6.5189 21.7932 8.86447 21.7931 11.3409C21.7931 12.2096 21.6743 13.0696 21.44 13.8972C21.3666 14.1566 21.5174 14.4265 21.7768 14.5C22.0364 14.5735 22.3062 14.4226 22.3797 14.1632C22.6384 13.2492 22.7696 12.2996 22.7697 11.3409C22.7697 10.9599 22.7479 10.5819 22.7065 10.2079C23.5777 9.93198 24.3608 9.40247 24.943 8.6877C25.6246 7.85077 26 6.79444 26 5.71321C26 3.11431 23.8858 1 21.2869 1V1ZM22.5498 9.23054C22.1408 7.29021 21.1697 5.49758 19.7155 4.04525C19.3697 3.69988 19.0043 3.38239 18.6227 3.09268C19.3226 2.3787 20.272 1.97659 21.2869 1.97659C23.3473 1.97659 25.0235 3.6528 25.0235 5.71311C25.0235 7.29465 24.0078 8.70489 22.5498 9.23054V9.23054Z" stroke="black" stroke-width="0.4" mask="url(#path-1-outside-1_43_5906)"/>
<mask id="path-2-outside-2_43_5906" maskUnits="userSpaceOnUse" x="4.4707" y="10.2852" width="5" height="3" fill="black">
<rect fill="white" x="4.4707" y="10.2852" width="5" height="3"/>
<path d="M7.77282 11.4282C7.36792 11.8331 6.70916 11.833 6.30431 11.4282C6.11363 11.2375 5.80444 11.2375 5.61371 11.4282C5.42303 11.6188 5.42303 11.928 5.61371 12.1188C6.00655 12.5116 6.52253 12.7079 7.03852 12.7079C7.5545 12.7079 8.07053 12.5116 8.46337 12.1188C8.65405 11.9281 8.65405 11.6189 8.46337 11.4282C8.27269 11.2375 7.9635 11.2375 7.77282 11.4282Z"/>
</mask>
<path d="M7.77282 11.4282C7.36792 11.8331 6.70916 11.833 6.30431 11.4282C6.11363 11.2375 5.80444 11.2375 5.61371 11.4282C5.42303 11.6188 5.42303 11.928 5.61371 12.1188C6.00655 12.5116 6.52253 12.7079 7.03852 12.7079C7.5545 12.7079 8.07053 12.5116 8.46337 12.1188C8.65405 11.9281 8.65405 11.6189 8.46337 11.4282C8.27269 11.2375 7.9635 11.2375 7.77282 11.4282Z" fill="black"/>
<path d="M7.77282 11.4282C7.36792 11.8331 6.70916 11.833 6.30431 11.4282C6.11363 11.2375 5.80444 11.2375 5.61371 11.4282C5.42303 11.6188 5.42303 11.928 5.61371 12.1188C6.00655 12.5116 6.52253 12.7079 7.03852 12.7079C7.5545 12.7079 8.07053 12.5116 8.46337 12.1188C8.65405 11.9281 8.65405 11.6189 8.46337 11.4282C8.27269 11.2375 7.9635 11.2375 7.77282 11.4282Z" stroke="black" stroke-width="0.4" mask="url(#path-2-outside-2_43_5906)"/>
<mask id="path-3-outside-3_43_5906" maskUnits="userSpaceOnUse" x="13.2656" y="14.7305" width="3" height="3" fill="black">
<rect fill="white" x="13.2656" y="14.7305" width="3" height="3"/>
<path d="M14.7539 16.7071C14.8823 16.7071 15.0083 16.6548 15.0991 16.564C15.19 16.4727 15.2422 16.3472 15.2422 16.2188C15.2422 16.0899 15.19 15.9644 15.0991 15.8735C15.0083 15.7822 14.8823 15.7305 14.7539 15.7305C14.625 15.7305 14.4995 15.7822 14.4082 15.8735C14.3174 15.9644 14.2656 16.0899 14.2656 16.2188C14.2656 16.3472 14.3174 16.4732 14.4082 16.564C14.4995 16.6548 14.625 16.7071 14.7539 16.7071Z"/>
</mask>
<path d="M14.7539 16.7071C14.8823 16.7071 15.0083 16.6548 15.0991 16.564C15.19 16.4727 15.2422 16.3472 15.2422 16.2188C15.2422 16.0899 15.19 15.9644 15.0991 15.8735C15.0083 15.7822 14.8823 15.7305 14.7539 15.7305C14.625 15.7305 14.4995 15.7822 14.4082 15.8735C14.3174 15.9644 14.2656 16.0899 14.2656 16.2188C14.2656 16.3472 14.3174 16.4732 14.4082 16.564C14.4995 16.6548 14.625 16.7071 14.7539 16.7071Z" fill="black"/>
<path d="M14.7539 16.7071C14.8823 16.7071 15.0083 16.6548 15.0991 16.564C15.19 16.4727 15.2422 16.3472 15.2422 16.2188C15.2422 16.0899 15.19 15.9644 15.0991 15.8735C15.0083 15.7822 14.8823 15.7305 14.7539 15.7305C14.625 15.7305 14.4995 15.7822 14.4082 15.8735C14.3174 15.9644 14.2656 16.0899 14.2656 16.2188C14.2656 16.3472 14.3174 16.4732 14.4082 16.564C14.4995 16.6548 14.625 16.7071 14.7539 16.7071Z" stroke="black" stroke-width="0.4" mask="url(#path-3-outside-3_43_5906)"/>
<mask id="path-4-outside-4_43_5906" maskUnits="userSpaceOnUse" x="19.5898" y="14.5752" width="3" height="3" fill="black">
<rect fill="white" x="19.5898" y="14.5752" width="3" height="3"/>
<path d="M21.0781 15.5752C20.9497 15.5752 20.8237 15.6274 20.7329 15.7183C20.6421 15.8091 20.5898 15.9351 20.5898 16.0635C20.5898 16.1924 20.6421 16.3179 20.7329 16.4087C20.8237 16.4995 20.9497 16.5518 21.0781 16.5518C21.2066 16.5518 21.3325 16.4995 21.4234 16.4087C21.5147 16.3179 21.5664 16.1919 21.5664 16.0635C21.5664 15.9351 21.5147 15.8091 21.4234 15.7183C21.3325 15.6274 21.2066 15.5752 21.0781 15.5752Z"/>
</mask>
<path d="M21.0781 15.5752C20.9497 15.5752 20.8237 15.6274 20.7329 15.7183C20.6421 15.8091 20.5898 15.9351 20.5898 16.0635C20.5898 16.1924 20.6421 16.3179 20.7329 16.4087C20.8237 16.4995 20.9497 16.5518 21.0781 16.5518C21.2066 16.5518 21.3325 16.4995 21.4234 16.4087C21.5147 16.3179 21.5664 16.1919 21.5664 16.0635C21.5664 15.9351 21.5147 15.8091 21.4234 15.7183C21.3325 15.6274 21.2066 15.5752 21.0781 15.5752Z" fill="black"/>
<path d="M21.0781 15.5752C20.9497 15.5752 20.8237 15.6274 20.7329 15.7183C20.6421 15.8091 20.5898 15.9351 20.5898 16.0635C20.5898 16.1924 20.6421 16.3179 20.7329 16.4087C20.8237 16.4995 20.9497 16.5518 21.0781 16.5518C21.2066 16.5518 21.3325 16.4995 21.4234 16.4087C21.5147 16.3179 21.5664 16.1919 21.5664 16.0635C21.5664 15.9351 21.5147 15.8091 21.4234 15.7183C21.3325 15.6274 21.2066 15.5752 21.0781 15.5752Z" stroke="black" stroke-width="0.4" mask="url(#path-4-outside-4_43_5906)"/>
</svg>
