<svg width="25" height="24" viewBox="0 0 25 24" fill="none" xmlns="http://www.w3.org/2000/svg">
<path d="M20.2002 10H4.2002V18C4.2002 21 5.2002 22 8.2002 22H16.2002C19.2002 22 20.2002 21 20.2002 18V10Z" stroke-width="1.5" stroke-miterlimit="10" stroke-linecap="round" stroke-linejoin="round"/>
<path d="M21.7305 7V8C21.7305 9.1 21.2005 10 19.7305 10H4.73047C3.20047 10 2.73047 9.1 2.73047 8V7C2.73047 5.9 3.20047 5 4.73047 5H19.7305C21.2005 5 21.7305 5.9 21.7305 7Z" stroke-width="1.5" stroke-miterlimit="10" stroke-linecap="round" stroke-linejoin="round"/>
<path d="M11.8703 4.99994H6.35025C6.01025 4.62994 6.02025 4.05994 6.38025 3.69994L7.80025 2.27994C8.17025 1.90994 8.78025 1.90994 9.15025 2.27994L11.8703 4.99994Z" stroke-width="1.5" stroke-miterlimit="10" stroke-linecap="round" stroke-linejoin="round"/>
<path d="M18.1001 4.99994H12.5801L15.3001 2.27994C15.6701 1.90994 16.2801 1.90994 16.6501 2.27994L18.0701 3.69994C18.4301 4.05994 18.4401 4.62994 18.1001 4.99994Z" stroke-width="1.5" stroke-miterlimit="10" stroke-linecap="round" stroke-linejoin="round"/>
<path d="M9.1709 10V15.14C9.1709 15.94 10.0509 16.41 10.7209 15.98L11.6609 15.36C12.0009 15.14 12.4309 15.14 12.7609 15.36L13.6509 15.96C14.3109 16.4 15.2009 15.93 15.2009 15.13V10H9.1709Z" stroke-width="1.5" stroke-miterlimit="10" stroke-linecap="round" stroke-linejoin="round"/>
</svg>
