<svg width="34" height="33" viewBox="0 0 34 33" fill="none" xmlns="http://www.w3.org/2000/svg">
<g clip-path="url(#clip0_43_15977)">
<path fill-rule="evenodd" clip-rule="evenodd" d="M16.9994 0C12.9626 0.000577441 9.05762 1.43057 5.98327 4.03413C2.90892 6.63769 0.865778 10.2449 0.2194 14.2104C-0.426978 18.1759 0.36559 22.2409 2.4553 25.6781C4.545 29.1153 7.79549 31.7003 11.6252 32.9708C12.4746 33.1273 12.7868 32.6036 12.7868 32.1561C12.7868 31.753 12.771 30.42 12.7636 29.0064C8.03414 30.0298 7.03624 27.0104 7.03624 27.0104C6.26305 25.0552 5.14856 24.5349 5.14856 24.5349C3.60612 23.4848 5.26487 23.5064 5.26487 23.5064C6.97188 23.6258 7.8707 25.2501 7.8707 25.2501C9.38688 27.8363 11.8476 27.0885 12.8179 26.6564C12.9706 25.5631 13.4107 24.8167 13.897 24.3941C10.1211 23.9666 6.15154 22.5156 6.15154 16.0332C6.12819 14.3522 6.75558 12.7265 7.90372 11.4932C7.72729 11.067 7.14521 9.34638 8.0683 7.01611C8.0683 7.01611 9.49585 6.56157 12.7445 8.75054C15.5311 7.99118 18.4717 7.99118 21.2584 8.75054C24.5033 6.56185 25.9286 7.01611 25.9286 7.01611C26.8539 9.34779 26.2719 11.067 26.0954 11.4932C27.2442 12.7263 27.8711 14.3527 27.8456 16.0341C27.8456 22.5322 23.8687 23.9626 20.0826 24.3815C20.6924 24.9065 21.2355 25.9361 21.2355 27.5144C21.2355 29.7781 21.216 31.5999 21.216 32.1572C21.216 32.6067 21.522 33.1351 22.3836 32.9691C26.2121 31.6968 29.4609 29.1106 31.549 25.673C33.637 22.2354 34.428 18.1707 33.7805 14.2059C33.133 10.2411 31.0893 6.63486 28.0148 4.0322C24.9404 1.42955 21.0358 0.00026382 16.9994 0V0Z" fill="#191313"/>
<path d="M6.43956 24.2907C6.4023 24.3749 6.27018 24.4002 6.14823 24.3424C6.02628 24.2845 5.95571 24.1738 5.99551 24.0895C6.03532 24.0052 6.16489 23.9791 6.28825 24.0367C6.41161 24.0943 6.48218 24.2078 6.43956 24.2921V24.2907Z" fill="#191313"/>
<path d="M7.12838 25.055C7.04737 25.1297 6.88872 25.0949 6.78117 24.9766C6.72937 24.9354 6.69536 24.8761 6.68613 24.8107C6.67689 24.7454 6.69312 24.679 6.73148 24.6252C6.81617 24.5505 6.96861 24.5856 7.08011 24.7036C7.19162 24.8216 7.21307 24.9794 7.12838 25.055Z" fill="#191313"/>
<path d="M7.79804 26.0277C7.69388 26.0999 7.52337 26.0324 7.41808 25.8819C7.31279 25.7313 7.31391 25.5509 7.42062 25.4787C7.52733 25.4065 7.69388 25.4717 7.80058 25.6206C7.90729 25.7695 7.90447 25.9541 7.79804 26.0277Z" fill="#191313"/>
<path d="M8.71531 26.9706C8.62215 27.0728 8.4237 27.0453 8.27832 26.9057C8.2103 26.8591 8.16251 26.7886 8.14455 26.7084C8.12659 26.6282 8.13979 26.5442 8.1815 26.4733C8.27607 26.3711 8.47565 26.3997 8.62187 26.5382C8.7681 26.6767 8.8144 26.8692 8.71503 26.9706H8.71531Z" fill="#191313"/>
<path d="M9.98309 27.5163C9.94188 27.6487 9.75077 27.7091 9.55965 27.6526C9.36854 27.5961 9.24151 27.4394 9.28047 27.3056C9.31943 27.1719 9.51251 27.109 9.70645 27.1697C9.90038 27.2304 10.0246 27.3815 9.98479 27.5163H9.98309Z" fill="#191313"/>
<path d="M11.3754 27.6181C11.3802 27.7586 11.2168 27.8735 11.0147 27.8757C10.8125 27.878 10.6477 27.7673 10.6446 27.6299C10.6415 27.4925 10.8044 27.3745 11.0073 27.3712C11.2103 27.3678 11.3743 27.4796 11.3743 27.6178L11.3754 27.6181Z" fill="#191313"/>
<path d="M12.6682 27.3992C12.6925 27.5352 12.5519 27.6751 12.3512 27.7122C12.1505 27.7493 11.9712 27.6642 11.9461 27.529C11.9215 27.3886 12.0647 27.2498 12.2617 27.2135C12.4587 27.1773 12.6428 27.2607 12.6682 27.399V27.3992Z" fill="#191313"/>
</g>
<defs>
<clipPath id="clip0_43_15977">
<rect width="34" height="33" fill="white"/>
</clipPath>
</defs>
</svg>
