<svg width="23" height="23" viewBox="0 0 23 23" fill="none" xmlns="http://www.w3.org/2000/svg">
<g clip-path="url(#clip0_43_5658)">
<path d="M5.0972 13.8991L4.29658 16.8871L1.37048 16.949C0.485359 15.3005 0.0150961 13.4612 0.000357468 11.5902C-0.0143812 9.71917 0.426848 7.87269 1.28589 6.21045L3.891 6.68798L5.03174 9.27747C4.51845 10.7789 4.54127 12.4118 5.09632 13.8984L5.0972 13.8991Z" fill="#FBBB00"/>
<path d="M22.7982 9.35156C23.1886 11.4021 23.0132 13.5202 22.291 15.4786C21.5688 17.4371 20.3269 19.1619 18.6987 20.468L15.4169 20.3006L14.9525 17.4015C16.3073 16.6071 17.3481 15.3715 17.9009 13.9015H11.752V9.35156H22.7982Z" fill="#518EF8"/>
<path d="M18.6981 20.4676C17.382 21.5237 15.8498 22.2774 14.2099 22.6752C12.5701 23.073 10.8628 23.1052 9.20913 22.7694C7.55546 22.4337 5.9959 21.7383 4.64101 20.7325C3.28613 19.7267 2.16911 18.4351 1.36914 16.9494L5.09586 13.8987C5.44574 14.8315 5.99516 15.6765 6.70571 16.3748C7.41625 17.0731 8.27077 17.6077 9.20949 17.9413C10.1482 18.2749 11.1485 18.3994 12.1403 18.3061C13.1322 18.2128 14.0917 17.9039 14.9517 17.4011L18.6981 20.4676Z" fill="#28B446"/>
<path d="M18.841 2.64766L15.1155 5.69765C14.2428 5.15412 13.2588 4.81435 12.2367 4.70363C11.2145 4.5929 10.1806 4.71406 9.21174 5.05811C8.24289 5.40215 7.36408 5.96021 6.64069 6.69078C5.9173 7.42135 5.36794 8.30563 5.03348 9.27783L1.28711 6.21133C2.07748 4.68588 3.19953 3.35685 4.57084 2.32187C5.94216 1.28689 7.5279 0.57225 9.21161 0.230436C10.8953 -0.111378 12.6342 -0.0716798 14.3005 0.346614C15.9669 0.764908 17.5184 1.55117 18.841 2.64766Z" fill="#F14336"/>
</g>
<defs>
<clipPath id="clip0_43_5658">
<rect width="23" height="23" fill="white"/>
</clipPath>
</defs>
</svg>
