<svg width="25" height="25" viewBox="0 0 25 25" fill="#000000" xmlns="http://www.w3.org/2000/svg">
<g clip-path="url(#clip0_43_5903)">
<path d="M24.2677 19.7989C23.2233 19.7989 22.3824 18.5526 22.3824 17.5207V9.88252C22.3824 4.4333 17.9492 0 12.5 0C7.05078 0 2.61763 4.4333 2.61763 9.88257V17.5208C2.61763 18.5527 1.77666 19.799 0.732324 19.799H0V20.5314C0 22.9954 2.00454 25 4.46851 25H20.5315C22.9955 25 25 22.9954 25 20.5313V19.7989H24.2677ZM9.21997 17.7266C8.03647 17.7266 7.07358 16.7637 7.07358 15.5802V10.4559H11.3694C12.9071 10.4559 14.2638 9.66636 15.0555 8.47124C15.7187 9.47256 16.7785 10.1891 18.0091 10.3951V11.7091C18.0091 12.8926 17.0463 13.8555 15.8627 13.8555H15.1304V14.5879C15.1304 16.3283 16.3679 17.7851 18.0091 18.1245V23.5352H7.07358V21.9957C8.7148 21.6562 9.9523 20.1995 9.9523 18.459V17.7266H9.21997ZM20.5315 23.5352H19.4738V16.7343H18.7415C17.7795 16.7343 16.9633 16.0981 16.6915 15.2244C18.2845 14.8489 19.4739 13.4152 19.4739 11.7091V8.99102H18.7416C17.1129 8.99102 15.7879 7.66602 15.7879 6.03735H14.3232C14.3232 7.66602 12.9981 8.99102 11.3695 8.99102H5.60894V15.5802C5.60894 17.2863 6.79834 18.72 8.39136 19.0955C8.11948 19.9692 7.30322 20.6054 6.34131 20.6054H5.60898V23.5352H4.46851C3.02319 23.5352 1.81304 22.5092 1.52812 21.1473C3.03276 20.6986 4.08228 19.033 4.08228 17.5208V9.88257C4.08232 5.24102 7.8585 1.46484 12.5 1.46484C17.1415 1.46484 20.9177 5.24102 20.9177 9.88257V17.5208C20.9177 19.0331 21.9672 20.6986 23.4718 21.1473C23.187 22.5092 21.9768 23.5352 20.5315 23.5352Z" fill="black"/>
</g>
<defs>
<clipPath id="clip0_43_5903">
<rect width="25" height="25" fill="white"/>
</clipPath>
</defs>
</svg>
