<svg width="25" height="23" viewBox="0 0 25 23" fill="none" xmlns="http://www.w3.org/2000/svg">
<path d="M12.5016 0C5.59772 0 0 4.39925 0 9.8264C0 13.335 2.34022 16.414 5.85984 18.1515C4.11197 24.1633 3.08472 24.5527 10.2782 19.4966C11.0138 19.5998 11.7556 19.6515 12.4984 19.6513C19.402 19.6513 25 15.2521 25 9.82493C25 4.39777 19.4058 0 12.5016 0Z" fill="#3E2723"/>
<path d="M10.8205 7.59966C10.7543 7.39614 10.6257 7.21883 10.4531 7.0931C10.2804 6.96737 10.0726 6.89966 9.85924 6.89966C9.64592 6.89966 9.43807 6.96737 9.26542 7.0931C9.09277 7.21883 8.96418 7.39614 8.89803 7.59966C7.87284 10.7905 6.50179 12.7582 7.34359 13.1472C8.46696 13.6582 8.49084 12.5084 8.75886 11.9974H10.9581C11.2262 12.5069 11.253 13.6574 12.3734 13.1472C13.222 12.7608 11.8651 10.8515 10.8205 7.59966ZM9.13981 10.7227L9.86101 8.6832L10.5807 10.7227H9.13981Z" fill="#FFEB3B"/>
<path d="M5.59032 13.2562C4.34193 13.2562 5.07964 11.5241 4.86912 8.29629C4.41977 8.22114 3.03516 8.60668 3.03516 7.59297C3.03648 7.40572 3.1117 7.22663 3.24433 7.09492C3.37696 6.96321 3.5562 6.88961 3.7428 6.89024C6.36371 7.07813 8.14313 6.39877 8.14313 7.59356C8.14313 8.62532 6.81454 8.21049 6.30917 8.29689C6.10159 11.5135 6.83518 13.2562 5.59032 13.2562Z" fill="#FFEB3B"/>
<path d="M13.7049 13.1507C12.4978 13.1507 13.2317 11.5147 13.0144 7.60844C13.0091 7.50814 13.0242 7.40781 13.0588 7.31357C13.0934 7.21933 13.1468 7.13314 13.2156 7.06027C13.2845 6.9874 13.3674 6.92936 13.4594 6.8897C13.5513 6.85004 13.6504 6.82959 13.7505 6.82959C13.8505 6.82959 13.9496 6.85004 14.0415 6.8897C14.1335 6.92936 14.2164 6.9874 14.2853 7.06027C14.3542 7.13314 14.4075 7.21933 14.4421 7.31357C14.4767 7.40781 14.4918 7.50814 14.4865 7.60844V11.8319C15.1839 11.9251 16.7106 11.4869 16.7106 12.4903C16.7106 13.5424 15.0683 13.0164 13.7046 13.1501L13.7049 13.1507Z" fill="#FFEB3B"/>
<path d="M20.3749 12.9431L18.6831 10.7082L18.433 10.9547V12.5229C18.4328 12.6177 18.4139 12.7115 18.3774 12.799C18.341 12.8865 18.2877 12.9659 18.2207 13.0327C18.1537 13.0995 18.0742 13.1524 17.9868 13.1884C17.8993 13.2243 17.8057 13.2426 17.7112 13.2422C16.4575 13.2422 17.21 11.4311 16.99 7.60616C16.991 7.41497 17.0674 7.23194 17.2026 7.09722C17.3378 6.96249 17.5207 6.88706 17.7112 6.88745C18.8001 6.88745 18.3304 8.43257 18.4324 9.15158C20.4746 7.19873 20.4221 6.98805 20.8452 6.98805C20.9741 6.98558 21.1012 7.01985 21.2115 7.08687C21.3218 7.1539 21.411 7.25094 21.4686 7.36674C21.5262 7.48254 21.55 7.61236 21.5371 7.74115C21.5242 7.86994 21.4751 7.99241 21.3957 8.09438L19.7481 9.73181L21.5236 12.0764C21.6351 12.2296 21.682 12.4207 21.6541 12.6084C21.6262 12.796 21.5258 12.9651 21.3746 13.0789C21.2233 13.1928 21.0335 13.2423 20.8462 13.2167C20.6588 13.1911 20.4891 13.0925 20.3737 12.9422L20.3749 12.9431Z" fill="#FFEB3B"/>
</svg>
