<svg width="41" height="41" viewBox="0 0 41 41" fill="none" xmlns="http://www.w3.org/2000/svg">
<rect width="41" height="41" rx="20.5" fill="black"/>
<path d="M22.7564 13.1689L19.5209 26.5398C19.2311 27.7377 19.9659 28.944 21.1622 29.2343L21.5824 29.3362C22.7787 29.6264 23.9834 28.8907 24.2733 27.6928L27.5087 14.3219C27.7986 13.124 27.0638 11.9177 25.8675 11.6274L25.4473 11.5255C24.251 11.2352 23.0462 11.971 22.7564 13.1689Z" fill="url(#paint0_linear_280_399)"/>
<path style="mix-blend-mode:multiply" opacity="0.5" d="M22.7564 13.1689L19.5209 26.5398C19.2311 27.7377 19.9659 28.944 21.1622 29.2343L21.5824 29.3362C22.7787 29.6264 23.9834 28.8907 24.2733 27.6928L27.5087 14.3219C27.7986 13.124 27.0638 11.9177 25.8675 11.6274L25.4473 11.5255C24.251 11.2352 23.0462 11.971 22.7564 13.1689Z" fill="url(#paint1_linear_280_399)"/>
<path d="M34.299 25.8973C33.2546 22.2939 32.6804 20.3026 32.5084 19.6955C32.4579 19.5194 32.3423 19.14 32.1985 18.5894C31.976 17.7362 31.7729 16.9618 31.5893 16.2711C31.2405 14.9529 30.9675 13.9431 30.7897 13.3001C30.6809 12.9071 30.4574 12.0909 29.9211 11.5548C29.6821 11.3155 29.4257 11.1842 29.1633 11.1102C29.004 11.0509 28.8349 11.0188 28.6542 11.0188C28.6173 11.0188 28.5823 11.0217 28.5474 11.0237C28.4201 11.0188 28.2928 11.0188 28.1675 11.0188H25.1372C24.2861 11.0188 23.5283 11.6891 23.1164 12.3224C22.718 12.9333 22.5985 13.5725 22.5247 13.9996C22.5023 14.1299 22.4878 14.2389 22.48 14.3148C22.5412 14.1416 23.2164 12.299 24.2259 12.2776C25.1158 12.2592 25.9552 13.5939 26.2788 14.8002C26.5634 15.8616 27.0842 17.7411 27.6302 19.6965C27.844 20.4631 28.0626 21.2423 28.2714 21.9885C28.6882 23.474 29.0341 25.1463 29.6792 27.2778C30.0018 28.3421 30.166 28.7779 30.5459 29.1116C31.2191 29.7021 32.1538 29.6048 32.4822 29.5707C32.8251 29.5347 33.0845 29.4238 33.1428 29.3986C33.2759 29.3402 33.4605 29.2575 33.6684 29.0736C33.8773 28.8888 34.0182 28.6845 34.1037 28.5386C34.1037 28.5386 34.2397 28.3129 34.3291 28.0035C34.5681 27.1756 34.3447 26.1094 34.299 25.9002V25.8973Z" fill="url(#paint2_linear_280_399)"/>
<path d="M14.4909 14.548C14.809 13.2337 14.0029 11.9101 12.6906 11.5917C11.3783 11.2734 10.0566 12.0807 9.7386 13.395L6.57544 26.4672C6.25741 27.7815 7.06344 29.1051 8.37576 29.4234C9.68809 29.7418 11.0098 28.9345 11.3278 27.6202L14.4909 14.548Z" fill="url(#paint3_linear_280_399)"/>
<path style="mix-blend-mode:multiply" opacity="0.5" d="M14.4909 14.548C14.809 13.2337 14.0029 11.9101 12.6906 11.5917C11.3783 11.2734 10.0566 12.0807 9.7386 13.395L6.57544 26.4672C6.25741 27.7815 7.06344 29.1051 8.37576 29.4234C9.68809 29.7418 11.0098 28.9345 11.3278 27.6202L14.4909 14.548Z" fill="url(#paint4_linear_280_399)"/>
<path d="M21.2394 25.7835C20.4515 23.9575 20.3747 22.6247 19.5567 19.6984C19.4527 19.3249 19.3488 18.9542 19.2467 18.5923C19.0243 17.7391 18.8212 16.9648 18.6376 16.2731C18.2888 14.9549 18.0158 13.9441 17.838 13.3011C17.7292 12.908 17.5057 12.0918 16.9694 11.5548C16.7304 11.3155 16.4739 11.1842 16.2116 11.1102C16.0523 11.0509 15.8832 11.0188 15.7025 11.0188C15.6656 11.0188 15.6306 11.0217 15.5956 11.0237C15.4683 11.0188 15.3411 11.0188 15.2157 11.0188H12.1855C10.8233 11.0188 10.1646 12.3224 10.1646 12.3224C10.0325 12.517 9.95184 12.6882 9.90229 12.8117C9.76821 13.1464 9.69243 13.5472 9.69243 13.5482C9.6322 13.8089 9.57196 14.0696 9.5127 14.3294C9.57099 14.164 10.254 12.2971 11.2741 12.2786C12.165 12.2621 13.0025 13.591 13.327 14.8021C13.6117 15.8645 14.1325 17.744 14.6785 19.7004C14.8922 20.4679 15.1108 21.2472 15.3197 21.9933C15.9668 24.4741 16.4574 26.3049 16.7275 27.2846C16.8363 27.6776 17.0598 28.4938 17.5961 29.0308C17.8351 29.2701 18.0916 29.4015 18.3539 29.4754C18.5132 29.5347 18.6823 29.5668 18.863 29.5668C18.8999 29.5668 18.9349 29.5639 18.9698 29.562C19.0971 29.5668 19.2244 29.5668 19.3497 29.5668H22.38C22.7113 29.5318 22.961 29.419 23.1174 29.3305C23.1631 29.3052 23.2923 29.2293 23.4478 29.1009C23.5371 29.0269 23.6906 28.8985 23.8529 28.6796C24.021 28.4539 24.1142 28.2467 24.1677 28.1251C24.2192 28.0093 24.3231 27.7749 24.3775 27.4937C24.3873 27.4432 24.4174 27.2807 24.4378 27.1688C24.4669 27.0093 24.4766 26.9558 24.4825 26.9198C24.5058 26.7894 24.5233 26.6814 24.5349 26.6065C24.3863 27.1824 24.0054 28.4316 23.3419 28.5074C22.4888 28.6057 21.6397 26.7145 21.2384 25.7835H21.2394Z" fill="url(#paint5_linear_280_399)"/>
<defs>
<linearGradient id="paint0_linear_280_399" x1="21.5692" y1="28.626" x2="25.4203" y2="12.4384" gradientUnits="userSpaceOnUse">
<stop offset="0.08" stop-color="#451AFF"/>
<stop offset="0.33" stop-color="#7400FF"/>
<stop offset="0.45" stop-color="#8200FF"/>
<stop offset="0.58" stop-color="#9700FF"/>
<stop offset="0.78" stop-color="#B300FF"/>
<stop offset="1" stop-color="#C400FF"/>
</linearGradient>
<linearGradient id="paint1_linear_280_399" x1="21.168" y1="29.4558" x2="25.7416" y2="11.9069" gradientUnits="userSpaceOnUse">
<stop/>
<stop offset="0.06" stop-color="#272727"/>
<stop offset="0.18" stop-color="#707070"/>
<stop offset="0.29" stop-color="#A9A9A9"/>
<stop offset="0.38" stop-color="#D3D3D3"/>
<stop offset="0.46" stop-color="#ECECEC"/>
<stop offset="0.5" stop-color="#F6F6F6"/>
<stop offset="0.54" stop-color="#ECECEC"/>
<stop offset="0.62" stop-color="#D2D2D2"/>
<stop offset="0.71" stop-color="#A8A8A8"/>
<stop offset="0.82" stop-color="#6E6E6E"/>
<stop offset="0.94" stop-color="#252525"/>
<stop offset="1"/>
</linearGradient>
<linearGradient id="paint2_linear_280_399" x1="26.0135" y1="11.0178" x2="31.0079" y2="30.0715" gradientUnits="userSpaceOnUse">
<stop stop-color="#8600FF"/>
<stop offset="0.1" stop-color="#AE00FF"/>
<stop offset="0.22" stop-color="#DA00FF"/>
<stop offset="0.32" stop-color="#F500FF"/>
<stop offset="0.38" stop-color="#FF00FF"/>
<stop offset="0.69" stop-color="#E81095"/>
<stop offset="1" stop-color="#FF2C4C"/>
</linearGradient>
<linearGradient id="paint3_linear_280_399" x1="-13.285" y1="21.6065" x2="-12.4293" y2="30.0488" gradientUnits="userSpaceOnUse">
<stop stop-color="#00BAFF"/>
<stop offset="0.37" stop-color="#00FFAE"/>
<stop offset="0.7" stop-color="#98FF00"/>
<stop offset="0.79" stop-color="#BCFF0A"/>
<stop offset="0.93" stop-color="#ECFF17"/>
<stop offset="1" stop-color="#FFFF1D"/>
</linearGradient>
<linearGradient id="paint4_linear_280_399" x1="-9.73939" y1="14.9471" x2="-13.0808" y2="29.6092" gradientUnits="userSpaceOnUse">
<stop/>
<stop offset="0.16" stop-color="#424242"/>
<stop offset="0.48" stop-color="#C2C2C2"/>
<stop offset="0.62" stop-color="#F6F6F6"/>
<stop offset="1" stop-color="white"/>
</linearGradient>
<linearGradient id="paint5_linear_280_399" x1="13.4883" y1="11.9051" x2="19.9656" y2="27.5471" gradientUnits="userSpaceOnUse">
<stop stop-color="#09D1A1"/>
<stop offset="0.49" stop-color="#00E3FF"/>
<stop offset="0.99" stop-color="#0066FF"/>
</linearGradient>
</defs>
</svg>
