<svg width="22" height="15" viewBox="0 0 22 15" fill="none" xmlns="http://www.w3.org/2000/svg">
<path d="M11.7305 14.3948L12.0557 14.4754C12.9812 14.7048 13.9132 14.1235 14.1375 13.1772L16.6413 2.61302C16.8656 1.66661 16.2972 0.713547 15.3718 0.484157L15.0466 0.403538C14.1211 0.174147 13.1892 0.755459 12.9648 1.70175L10.461 12.2659C10.2367 13.2123 10.8052 14.1654 11.7305 14.3948Z" fill="url(#paint0_linear_43_13050)"/>
<path style="mix-blend-mode:multiply" opacity="0.5" d="M11.7305 14.3948L12.0557 14.4754C12.9812 14.7048 13.9132 14.1235 14.1375 13.1772L16.6413 2.61302C16.8656 1.66661 16.2972 0.713547 15.3718 0.484157L15.0466 0.403538C14.1211 0.174147 13.1892 0.755459 12.9648 1.70175L10.461 12.2659C10.2367 13.2123 10.8052 14.1654 11.7305 14.3948Z" fill="url(#paint1_linear_43_13050)"/>
<path d="M21.8932 11.758C21.0853 8.91065 20.6409 7.33781 20.508 6.85754C20.4693 6.71826 20.3793 6.41835 20.2683 5.98355C20.0962 5.30951 19.9388 4.69792 19.7972 4.15199C19.5274 3.11071 19.3163 2.31236 19.179 1.80466C19.0949 1.49406 18.922 0.849343 18.507 0.42547C18.3221 0.236805 18.1239 0.132321 17.9209 0.0743796C17.7973 0.0273618 17.6666 0.00195312 17.527 0.00195312C17.4986 0.00195312 17.4713 0.00385284 17.4444 0.00610874C17.3458 0.00219059 17.2477 0.00195312 17.1507 0.00195312H14.8065C14.1483 0.00195312 13.5616 0.531854 13.2429 1.0316C12.9348 1.5146 12.8423 2.01933 12.7848 2.35676C12.7673 2.45947 12.7566 2.54567 12.75 2.60598C12.7976 2.46897 13.3196 1.01343 14.101 0.996808C14.7895 0.982204 15.4392 2.03702 15.6893 2.98972C15.9095 3.82857 16.3125 5.31319 16.735 6.85837C16.9007 7.46438 17.0694 8.07964 17.2311 8.66903C17.5533 9.84234 17.8209 11.1642 18.3204 12.8479C18.5699 13.6891 18.6973 14.0336 18.9905 14.2965C19.5112 14.7631 20.2346 14.6861 20.4883 14.6591C20.7536 14.6308 20.954 14.5433 20.9992 14.5231C21.102 14.4769 21.2446 14.4114 21.4055 14.2662C21.5675 14.1201 21.6758 13.9585 21.7422 13.8431C21.7422 13.8431 21.8473 13.6646 21.9164 13.4201C22.101 12.7664 21.9287 11.9236 21.8932 11.758Z" fill="url(#paint2_linear_43_13050)"/>
<path d="M5.33878 0.495772L5.01357 0.415194C4.08812 0.185889 3.15611 0.767199 2.93188 1.71359L0.405715 12.3754C0.181482 13.3218 0.749934 14.2749 1.67539 14.5042L2.00059 14.5848C2.92604 14.8141 3.85805 14.2328 4.08228 13.2864L6.60845 2.62455C6.83268 1.67816 6.26423 0.725077 5.33878 0.495772Z" fill="url(#paint3_linear_43_13050)"/>
<path style="mix-blend-mode:multiply" opacity="0.5" d="M5.33878 0.495772L5.01357 0.415194C4.08812 0.185889 3.15611 0.767199 2.93188 1.71359L0.405715 12.3754C0.181482 13.3218 0.749934 14.2749 1.67539 14.5042L2.00059 14.5848C2.92604 14.8141 3.85805 14.2328 4.08228 13.2864L6.60845 2.62455C6.83268 1.67816 6.26423 0.725077 5.33878 0.495772Z" fill="url(#paint4_linear_43_13050)"/>
<path d="M11.7904 11.668C11.1807 10.2249 11.1216 9.17233 10.4884 6.86039C10.4076 6.56557 10.3274 6.27278 10.2486 5.98616C10.0766 5.31188 9.91914 4.70006 9.77761 4.15377C9.50778 3.11214 9.2967 2.31331 9.15935 1.80549C9.07529 1.49477 8.90241 0.849818 8.48733 0.425707C8.30249 0.236924 8.1043 0.13244 7.90123 0.0744983C7.77769 0.0274805 7.64696 0.00195312 7.5074 0.00195312C7.47896 0.00195312 7.45167 0.00385284 7.42473 0.00610874C7.32616 0.00219059 7.22805 0.00195312 7.1311 0.00195312H4.78682C3.73328 0.00195312 3.22323 1.03207 3.22323 1.03207C3.12094 1.18571 3.05882 1.3213 3.02062 1.41866C2.91683 1.68332 2.85831 1.9995 2.85808 2.00045C2.81163 2.20621 2.76519 2.41209 2.71875 2.61786C2.76415 2.48701 3.29219 1.01248 4.08136 0.997283C4.77033 0.984104 5.41866 2.03429 5.66968 2.99115C5.88982 3.83035 6.29282 5.31556 6.71533 6.86157C6.88101 7.46782 7.04971 8.08332 7.21145 8.67295C7.71175 10.6332 8.09129 12.0795 8.30075 12.8536C8.38481 13.1643 8.55769 13.8093 8.97277 14.2334C9.15761 14.4222 9.3558 14.5267 9.55887 14.5846C9.6824 14.6316 9.81314 14.6572 9.9527 14.6572C9.98114 14.6572 10.0084 14.6553 10.0354 14.653C10.1339 14.6569 10.232 14.6572 10.329 14.6572H12.6732C12.9292 14.6294 13.1226 14.54 13.2436 14.4703C13.2788 14.45 13.3791 14.3904 13.499 14.2889C13.5685 14.2301 13.6868 14.1287 13.8125 13.9563C13.9424 13.7782 14.0145 13.6141 14.0563 13.5179C14.0959 13.4266 14.1764 13.241 14.2189 13.019C14.2265 12.9788 14.2496 12.8505 14.2653 12.7621C14.2877 12.6357 14.2953 12.5936 14.3001 12.5656C14.3178 12.4628 14.3315 12.3776 14.3409 12.3183C14.2262 12.7731 13.9314 13.76 13.4177 13.8203C12.7576 13.8979 12.1012 12.404 11.7904 11.6681V11.668Z" fill="url(#paint5_linear_43_13050)"/>
<defs>
<linearGradient id="paint0_linear_43_13050" x1="12.0468" y1="13.9135" x2="15.1475" y2="1.15319" gradientUnits="userSpaceOnUse">
<stop offset="0.08" stop-color="#451AFF"/>
<stop offset="0.33" stop-color="#7400FF"/>
<stop offset="0.45" stop-color="#8200FF"/>
<stop offset="0.58" stop-color="#9700FF"/>
<stop offset="0.78" stop-color="#B300FF"/>
<stop offset="1" stop-color="#C400FF"/>
</linearGradient>
<linearGradient id="paint1_linear_43_13050" x1="11.7364" y1="14.5692" x2="15.4169" y2="0.741459" gradientUnits="userSpaceOnUse">
<stop/>
<stop offset="0.06" stop-color="#272727"/>
<stop offset="0.18" stop-color="#707070"/>
<stop offset="0.29" stop-color="#A9A9A9"/>
<stop offset="0.38" stop-color="#D3D3D3"/>
<stop offset="0.46" stop-color="#ECECEC"/>
<stop offset="0.5" stop-color="#F6F6F6"/>
<stop offset="0.54" stop-color="#ECECEC"/>
<stop offset="0.62" stop-color="#D2D2D2"/>
<stop offset="0.71" stop-color="#A8A8A8"/>
<stop offset="0.82" stop-color="#6E6E6E"/>
<stop offset="0.94" stop-color="#252525"/>
<stop offset="1"/>
</linearGradient>
<linearGradient id="paint2_linear_43_13050" x1="15.4834" y1="0.00230935" x2="19.5029" y2="15.0144" gradientUnits="userSpaceOnUse">
<stop stop-color="#8600FF"/>
<stop offset="0.1" stop-color="#AE00FF"/>
<stop offset="0.22" stop-color="#DA00FF"/>
<stop offset="0.32" stop-color="#F500FF"/>
<stop offset="0.38" stop-color="#FF00FF"/>
<stop offset="0.69" stop-color="#E81095"/>
<stop offset="1" stop-color="#FF2C4C"/>
</linearGradient>
<linearGradient id="paint3_linear_43_13050" x1="3.88767" y1="1.45042" x2="1.19698" y2="13.0105" gradientUnits="userSpaceOnUse">
<stop stop-color="#00BAFF"/>
<stop offset="0.37" stop-color="#00FFAE"/>
<stop offset="0.7" stop-color="#98FF00"/>
<stop offset="0.79" stop-color="#BCFF0A"/>
<stop offset="0.93" stop-color="#ECFF17"/>
<stop offset="1" stop-color="#FFFF1D"/>
</linearGradient>
<linearGradient id="paint4_linear_43_13050" x1="3.88767" y1="1.45042" x2="1.19698" y2="13.0105" gradientUnits="userSpaceOnUse">
<stop/>
<stop offset="0.16" stop-color="#424242"/>
<stop offset="0.48" stop-color="#C2C2C2"/>
<stop offset="0.62" stop-color="#F6F6F6"/>
<stop offset="1" stop-color="white"/>
</linearGradient>
<linearGradient id="paint5_linear_43_13050" x1="5.79392" y1="0.703065" x2="10.9878" y2="12.9837" gradientUnits="userSpaceOnUse">
<stop stop-color="#09D1A1"/>
<stop offset="0.49" stop-color="#00E3FF"/>
<stop offset="0.99" stop-color="#0066FF"/>
</linearGradient>
</defs>
</svg>
