<svg width="81" height="18" viewBox="0 0 81 18" fill="none" xmlns="http://www.w3.org/2000/svg">
<path d="M14.1819 17.2737L14.5752 17.3705C15.6941 17.6457 16.8209 16.9482 17.0922 15.8126L20.1195 3.1356C20.3907 1.99991 19.7034 0.856232 18.5845 0.580964L18.1913 0.484221C17.0724 0.208953 15.9455 0.906527 15.6743 2.04208L12.647 14.7191C12.3758 15.8548 13.0631 16.9985 14.1819 17.2737Z" fill="url(#paint0_linear_43_5666)"/>
<path style="mix-blend-mode:multiply" opacity="0.5" d="M14.1819 17.2737L14.5752 17.3705C15.6941 17.6457 16.8209 16.9482 17.0922 15.8126L20.1195 3.1356C20.3907 1.99991 19.7034 0.856232 18.5845 0.580964L18.1913 0.484221C17.0724 0.208953 15.9455 0.906527 15.6743 2.04208L12.647 14.7191C12.3758 15.8548 13.0631 16.9985 14.1819 17.2737Z" fill="url(#paint1_linear_43_5666)"/>
<path d="M26.4688 14.1095C25.4921 10.6928 24.9547 8.80534 24.7941 8.22902C24.7472 8.06189 24.6384 7.70199 24.5042 7.18024C24.2962 6.37139 24.1058 5.63748 23.9347 4.98237C23.6085 3.73283 23.3532 2.77481 23.1872 2.16557C23.0855 1.79284 22.8765 1.01919 22.3747 0.51054C22.1512 0.284141 21.9115 0.158761 21.666 0.0892311C21.5167 0.0328097 21.3586 0.00231934 21.1899 0.00231934C21.1555 0.00231934 21.1225 0.00459899 21.0899 0.00730608C20.9707 0.00260429 20.8521 0.00231934 20.7349 0.00231934H17.9005C17.1047 0.00231934 16.3953 0.6382 16.01 1.23789C15.6375 1.81749 15.5257 2.42317 15.4562 2.82809C15.435 2.95134 15.4221 3.05478 15.4141 3.12715C15.4716 2.96273 16.1028 1.21609 17.0475 1.19615C17.88 1.17862 18.6655 2.4444 18.9679 3.58764C19.2341 4.59425 19.7213 6.3758 20.2322 8.23002C20.4325 8.95723 20.6365 9.69555 20.832 10.4028C21.2216 11.8108 21.5452 13.397 22.1491 15.4175C22.4507 16.4269 22.6047 16.8403 22.9593 17.1557C23.5888 17.7157 24.4635 17.6233 24.7702 17.5908C25.091 17.5569 25.3333 17.4519 25.3879 17.4277C25.5123 17.3723 25.6847 17.2936 25.8792 17.1194C26.0751 16.9441 26.206 16.7502 26.2863 16.6117C26.2863 16.6117 26.4134 16.3974 26.4969 16.1041C26.7201 15.3196 26.5118 14.3083 26.4688 14.1095Z" fill="url(#paint2_linear_43_5666)"/>
<path d="M6.45437 0.594926L6.06118 0.498232C4.94224 0.223066 3.81538 0.920639 3.54426 2.0563L0.489941 14.8505C0.218828 15.9862 0.906127 17.1299 2.02507 17.4051L2.41826 17.5018C3.5372 17.7769 4.66406 17.0794 4.93518 15.9437L7.9895 3.14946C8.26061 2.0138 7.57331 0.870093 6.45437 0.594926Z" fill="url(#paint3_linear_43_5666)"/>
<path style="mix-blend-mode:multiply" opacity="0.5" d="M6.45437 0.594926L6.06118 0.498232C4.94224 0.223066 3.81538 0.920639 3.54426 2.0563L0.489941 14.8505C0.218828 15.9862 0.906127 17.1299 2.02507 17.4051L2.41826 17.5018C3.5372 17.7769 4.66406 17.0794 4.93518 15.9437L7.9895 3.14946C8.26061 2.0138 7.57331 0.870093 6.45437 0.594926Z" fill="url(#paint4_linear_43_5666)"/>
<path d="M14.2535 14.0019C13.5163 12.2702 13.4449 11.0071 12.6792 8.23281C12.5815 7.87903 12.4845 7.52768 12.3894 7.18374C12.1813 6.3746 11.991 5.64041 11.8198 4.98487C11.4936 3.73491 11.2384 2.77631 11.0723 2.16693C10.9707 1.79407 10.7616 1.02012 10.2598 0.511191C10.0363 0.28465 9.79668 0.159269 9.55115 0.0897398C9.40179 0.0333184 9.24372 0.00268555 9.07499 0.00268555C9.04059 0.00268555 9.0076 0.0049652 8.97503 0.00767229C8.85585 0.0029705 8.73723 0.00268555 8.62001 0.00268555H5.7856C4.5118 0.00268555 3.89511 1.23883 3.89511 1.23883C3.77143 1.42319 3.69633 1.58591 3.65014 1.70274C3.52464 2.02032 3.45389 2.39974 3.45361 2.40088C3.39746 2.6478 3.34131 2.89485 3.28516 3.14177C3.34004 2.98476 3.97849 1.21532 4.93265 1.19708C5.76567 1.18127 6.54955 2.44149 6.85305 3.58972C7.11921 4.59676 7.60647 6.37902 8.11731 8.23423C8.31764 8.96172 8.52161 9.70033 8.71716 10.4079C9.32205 12.7602 9.78095 14.4957 10.0342 15.4247C10.1358 15.7976 10.3449 16.5715 10.8467 17.0804C11.0702 17.307 11.3098 17.4323 11.5554 17.5019C11.7047 17.5583 11.8628 17.5889 12.0315 17.5889C12.0659 17.5889 12.0989 17.5867 12.1315 17.5839C12.2507 17.5886 12.3693 17.5889 12.4865 17.5889H15.3208C15.6303 17.5556 15.8642 17.4483 16.0105 17.3647C16.053 17.3403 16.1743 17.2688 16.3193 17.147C16.4032 17.0764 16.5463 16.9548 16.6983 16.7479C16.8554 16.5342 16.9426 16.3373 16.9931 16.2219C17.041 16.1123 17.1383 15.8896 17.1896 15.6232C17.1989 15.5749 17.2268 15.421 17.2458 15.3148C17.2729 15.1632 17.282 15.1127 17.2879 15.079C17.3092 14.9556 17.3258 14.8535 17.3372 14.7822C17.1985 15.3281 16.8421 16.5124 16.221 16.5847C15.4228 16.6778 14.6293 14.8851 14.2535 14.002V14.0019Z" fill="url(#paint5_linear_43_5666)"/>
<path d="M29.3965 4.62671H30.6543L32.2378 9.10623C32.4287 9.68754 32.6196 10.2689 32.8218 10.8502H32.8779C33.0688 10.2689 33.2485 9.68754 33.4394 9.10623L35.0117 4.62671H36.2695V12.993H35.2924V8.36534C35.2924 7.64725 35.3711 6.6328 35.4272 5.90331H35.3823L34.7309 7.80683L33.1699 12.1496H32.4736L30.9126 7.80683L30.2612 5.90331H30.2163C30.2612 6.6328 30.3398 7.64725 30.3398 8.36534V12.993H29.3965V4.62671Z" fill="black"/>
<path d="M39.6387 4.62671H44.3891V5.52717H40.6831V8.14877H43.8051V9.04924H40.6831V12.0926H44.5127V12.993H39.6387V4.62671Z" fill="black"/>
<path d="M47.3652 4.62671H49.4316C51.9585 4.62671 53.3173 6.13128 53.3173 8.78708C53.3173 11.4429 51.9585 12.993 49.4766 12.993H47.3652V4.62671ZM49.3418 12.1268C51.2846 12.1268 52.2392 10.8958 52.2392 8.78708C52.2392 6.6784 51.2846 5.49298 49.3418 5.49298H48.4097V12.1268H49.3418Z" fill="black"/>
<path d="M56.2031 4.62671H57.2476V12.993H56.2031V4.62671Z" fill="black"/>
<path d="M60.1445 8.82126C60.1445 6.11987 61.7056 4.47852 63.7944 4.47852C64.7939 4.47852 65.58 4.98004 66.0517 5.51576L65.4902 6.19965C65.0634 5.73233 64.5132 5.40178 63.8056 5.40178C62.2446 5.40178 61.2114 6.70118 61.2114 8.78706C61.2114 10.8729 62.1997 12.2179 63.7719 12.2179C64.5581 12.2179 65.1533 11.8646 65.6811 11.2833L66.2539 11.9444C65.6025 12.7081 64.7939 13.1412 63.727 13.1412C61.6831 13.1412 60.1445 11.534 60.1445 8.82126Z" fill="black"/>
<path d="M68.9062 4.62671H69.9507V12.0926H73.5444V12.993H68.9062V4.62671Z" fill="black"/>
<path d="M76.125 4.62671H80.8755V5.52717H77.1694V8.14877H80.2915V9.04924H77.1694V12.0926H80.999V12.993H76.125V4.62671Z" fill="black"/>
<defs>
<linearGradient id="paint0_linear_43_5666" x1="14.5643" y1="16.6961" x2="18.2604" y2="1.37103" gradientUnits="userSpaceOnUse">
<stop offset="0.08" stop-color="#451AFF"/>
<stop offset="0.33" stop-color="#7400FF"/>
<stop offset="0.45" stop-color="#8200FF"/>
<stop offset="0.58" stop-color="#9700FF"/>
<stop offset="0.78" stop-color="#B300FF"/>
<stop offset="1" stop-color="#C400FF"/>
</linearGradient>
<linearGradient id="paint1_linear_43_5666" x1="14.1891" y1="17.483" x2="18.5768" y2="0.873297" gradientUnits="userSpaceOnUse">
<stop/>
<stop offset="0.06" stop-color="#272727"/>
<stop offset="0.18" stop-color="#707070"/>
<stop offset="0.29" stop-color="#A9A9A9"/>
<stop offset="0.38" stop-color="#D3D3D3"/>
<stop offset="0.46" stop-color="#ECECEC"/>
<stop offset="0.5" stop-color="#F6F6F6"/>
<stop offset="0.54" stop-color="#ECECEC"/>
<stop offset="0.62" stop-color="#D2D2D2"/>
<stop offset="0.71" stop-color="#A8A8A8"/>
<stop offset="0.82" stop-color="#6E6E6E"/>
<stop offset="0.94" stop-color="#252525"/>
<stop offset="1"/>
</linearGradient>
<linearGradient id="paint2_linear_43_5666" x1="18.7189" y1="0.0027468" x2="23.5109" y2="18.0353" gradientUnits="userSpaceOnUse">
<stop stop-color="#8600FF"/>
<stop offset="0.1" stop-color="#AE00FF"/>
<stop offset="0.22" stop-color="#DA00FF"/>
<stop offset="0.32" stop-color="#F500FF"/>
<stop offset="0.38" stop-color="#FF00FF"/>
<stop offset="0.69" stop-color="#E81095"/>
<stop offset="1" stop-color="#FF2C4C"/>
</linearGradient>
<linearGradient id="paint3_linear_43_5666" x1="4.69987" y1="1.74051" x2="1.49282" y2="15.6233" gradientUnits="userSpaceOnUse">
<stop stop-color="#00BAFF"/>
<stop offset="0.37" stop-color="#00FFAE"/>
<stop offset="0.7" stop-color="#98FF00"/>
<stop offset="0.79" stop-color="#BCFF0A"/>
<stop offset="0.93" stop-color="#ECFF17"/>
<stop offset="1" stop-color="#FFFF1D"/>
</linearGradient>
<linearGradient id="paint4_linear_43_5666" x1="4.69987" y1="1.74051" x2="1.49282" y2="15.6233" gradientUnits="userSpaceOnUse">
<stop/>
<stop offset="0.16" stop-color="#424242"/>
<stop offset="0.48" stop-color="#C2C2C2"/>
<stop offset="0.62" stop-color="#F6F6F6"/>
<stop offset="1" stop-color="white"/>
</linearGradient>
<linearGradient id="paint5_linear_43_5666" x1="7.00326" y1="0.84402" x2="13.2032" y2="15.6143" gradientUnits="userSpaceOnUse">
<stop stop-color="#09D1A1"/>
<stop offset="0.49" stop-color="#00E3FF"/>
<stop offset="0.99" stop-color="#0066FF"/>
</linearGradient>
</defs>
</svg>
