<svg width="27" height="15" viewBox="0 0 27 15" fill="none" xmlns="http://www.w3.org/2000/svg">
<path d="M21.5145 1.96376C19.4188 -0.17223 16.0493 -0.619608 13.5102 0.887369L13.5 0.893262L13.4898 0.887369C10.9505 -0.619552 7.58126 -0.172174 5.48554 1.96376L0 7.41441L4.14777 12.3277C5.58151 14.026 7.64047 15 9.79671 15H17.2032C19.3595 15 21.4185 14.026 22.8522 12.3277L27 7.41436L21.5145 1.96376ZM6.57033 3.17758C8.18265 1.53439 10.7749 1.18987 12.7286 2.34942L13.4999 2.79591L14.2713 2.34948C16.2251 1.18986 18.8172 1.53445 20.4296 3.17763L23.9055 6.63152H23.0153C22.2116 6.63152 21.4141 6.50676 20.6448 6.26058L20.6038 6.24752C18.9299 5.71191 17.1471 5.66148 15.4483 6.10174C14.1736 6.43204 12.8262 6.43204 11.5517 6.10174C9.85281 5.66148 8.07014 5.71185 6.39623 6.24746L6.35495 6.26069C5.58593 6.50676 4.78845 6.63152 3.98469 6.63152H3.09435L6.57033 3.17758ZM21.6706 11.2188C20.5368 12.5619 18.9085 13.3321 17.2032 13.3321H9.79671C8.09144 13.3321 6.46309 12.5619 5.32926 11.2188L2.86468 8.29933H3.98464C4.94415 8.29933 5.89612 8.15039 6.81414 7.85662L6.85543 7.84345C8.25763 7.39479 9.751 7.35253 11.1741 7.72136C12.6957 8.1157 14.3043 8.1157 15.8259 7.72136C17.2491 7.35248 18.7423 7.39473 20.1447 7.8435L20.1857 7.85657C21.1038 8.15033 22.0558 8.29927 23.0153 8.29927H24.1352L21.6706 11.2188Z" fill="black"/>
</svg>
