<svg width="24" height="24" viewBox="0 0 24 24" fill="#000000" xmlns="http://www.w3.org/2000/svg">
<g clip-path="url(#clip0_43_5888)">
<path d="M22.6297 13.8224L22.2012 13.3956C20.363 11.5644 19.2155 9.12688 18.9701 6.53209L18.3536 0H8.64765L8.03135 6.52984L8.03019 6.52975C7.78522 9.12543 6.63759 11.5638 4.79881 13.3956L4.37034 13.8224C1.44233 16.7082 3.52319 21.8382 7.62155 21.8155H8.50015C8.68788 21.9644 8.89007 22.0984 9.10563 22.2152L11.4353 23.4779C12.7005 24.174 14.3008 24.174 15.5659 23.4779L17.8956 22.2152C18.1112 22.0984 18.3134 21.9644 18.5011 21.8155H19.3785C23.4786 21.8377 25.5568 16.7072 22.6297 13.8224ZM4.38762 17.1456C4.38762 16.2788 4.73823 15.4323 5.34952 14.8233L5.77799 14.3965C6.4276 13.7493 7.00065 13.0349 7.48975 12.2689L6.93691 18.1267C6.86133 18.9277 7.0144 19.7109 7.3547 20.3981C5.69585 20.2607 4.38762 18.8544 4.38762 17.1456ZM17.2362 20.9762L14.9065 22.2389C14.0454 22.7128 12.956 22.7127 12.0949 22.2389L9.76518 20.9762C8.78438 20.4446 8.21885 19.3784 8.3244 18.26L9.91501 1.40641H17.0863L18.677 18.26C18.7826 19.3784 18.217 20.4446 17.2362 20.9762ZM19.6467 20.398C19.9869 19.7108 20.14 18.9277 20.0644 18.1267L19.5118 12.2712C20.0005 13.0363 20.5731 13.75 21.2221 14.3965L21.6506 14.8233C23.6132 16.7671 22.3688 20.1826 19.6467 20.398Z" fill="black"/>
</g>
<defs>
<clipPath id="clip0_43_5888">
<rect width="24" height="24" fill="white"/>
</clipPath>
</defs>
</svg>
