<svg width="18" height="19" viewBox="0 0 18 19" fill="none" xmlns="http://www.w3.org/2000/svg">
<path d="M17.7859 17.2513L13.5908 13.0562C13.305 12.7703 12.842 12.7703 12.5562 13.0562C12.2703 13.3418 12.2703 13.8052 12.5562 14.0908L16.7513 18.286C16.8942 18.4289 17.0813 18.5004 17.2686 18.5004C17.4557 18.5004 17.643 18.4289 17.7859 18.286C18.0718 18.0004 18.0718 17.5369 17.7859 17.2513Z" fill="#333333"/>
<path d="M7.92678 0.5C3.55607 0.5 0 4.05611 0 8.42686C0 12.7979 3.55607 16.3537 7.92678 16.3537C12.2977 16.3537 15.8536 12.7979 15.8536 8.42686C15.8536 4.05611 12.2977 0.5 7.92678 0.5ZM7.92678 14.8903C4.3629 14.8903 1.46341 11.9908 1.46341 8.42689C1.46341 4.86298 4.3629 1.96342 7.92678 1.96342C11.4907 1.96342 14.3901 4.86295 14.3901 8.42686C14.3901 11.9908 11.4907 14.8903 7.92678 14.8903Z" fill="#333333"/>
</svg>
