<svg width="18" height="18" viewBox="0 0 18 18" fill="none" xmlns="http://www.w3.org/2000/svg">
<path d="M4 17.0001C2.34315 17.0001 1 15.6569 1 14.0001V4C1 2.34315 2.34315 1 4 1H14C15.6569 1 17 2.34315 17 4L17 14.0001C17 15.6569 15.6569 17.0001 14 17.0001H4Z" fill="#FFB61B"/>
<path d="M12 7L7.5253 11L6 9.63651M17 4L17 14.0001C17 15.6569 15.6569 17.0001 14 17.0001H4C2.34315 17.0001 1 15.6569 1 14.0001V4C1 2.34315 2.34315 1 4 1H14C15.6569 1 17 2.34315 17 4Z" stroke="white" stroke-width="2" stroke-linecap="round" stroke-linejoin="round"/>
</svg>
