<svg width="28" height="28" viewBox="0 0 28 28" fill="none" xmlns="http://www.w3.org/2000/svg">
<path d="M24.9922 7.74609H18.2422" stroke="#706148" stroke-width="1.5" stroke-miterlimit="10" stroke-linecap="round" stroke-linejoin="round"/>
<path d="M6.99219 7.74609H2.49219" stroke="#706148" stroke-width="1.5" stroke-miterlimit="10" stroke-linecap="round" stroke-linejoin="round"/>
<path d="M11.4922 11.6836C13.6668 11.6836 15.4297 9.92071 15.4297 7.74609C15.4297 5.57147 13.6668 3.80859 11.4922 3.80859C9.31757 3.80859 7.55469 5.57147 7.55469 7.74609C7.55469 9.92071 9.31757 11.6836 11.4922 11.6836Z" stroke="#706148" stroke-width="1.5" stroke-miterlimit="10" stroke-linecap="round" stroke-linejoin="round"/>
<path d="M24.9922 20.1211H20.4922" stroke="#706148" stroke-width="1.5" stroke-miterlimit="10" stroke-linecap="round" stroke-linejoin="round"/>
<path d="M9.24219 20.1211H2.49219" stroke="#706148" stroke-width="1.5" stroke-miterlimit="10" stroke-linecap="round" stroke-linejoin="round"/>
<path d="M15.9922 24.0586C18.1668 24.0586 19.9297 22.2957 19.9297 20.1211C19.9297 17.9465 18.1668 16.1836 15.9922 16.1836C13.8176 16.1836 12.0547 17.9465 12.0547 20.1211C12.0547 22.2957 13.8176 24.0586 15.9922 24.0586Z" stroke="#706148" stroke-width="1.5" stroke-miterlimit="10" stroke-linecap="round" stroke-linejoin="round"/>
</svg>
