<svg width="25" height="25" viewBox="0 0 25 25" fill="#000000" xmlns="http://www.w3.org/2000/svg">
<path d="M20.4791 9.19184H20.4128V8.87856C19.9633 -2.96402 3.03238 -2.95502 2.58713 8.87856V9.19184H2.52089C1.13085 9.19184 0 10.3257 0 11.7195V12.9077C0 14.3014 1.13085 15.4353 2.52089 15.4353H2.58717C2.59206 17.8967 3.59302 20.2053 5.30092 21.8745V25H6.76524V23.0343C6.93769 23.1438 7.11453 23.248 7.29572 23.3464L9.31654 24.4448C10.6522 25.182 12.3478 25.1819 13.6835 24.4448L15.7043 23.3464C15.8855 23.248 16.0623 23.1438 16.2348 23.0343V25H17.6991V21.8745C19.407 20.2053 20.4079 17.8966 20.4128 15.4353H20.4791C21.8692 15.4353 23 14.3014 23 12.9077V11.7195C23 10.3257 21.8691 9.19184 20.4791 9.19184ZM1.46428 12.9077V11.7195C1.46428 11.1353 1.93823 10.6601 2.52084 10.6601H2.58708V13.9671H2.52084C1.93823 13.9671 1.46428 13.4918 1.46428 12.9077ZM18.9485 15.4172C18.9485 18.1904 17.4379 20.7341 15.0064 22.0557L12.9856 23.154C12.0768 23.6556 10.9231 23.6556 10.0143 23.154L7.99347 22.0557C5.56196 20.7341 4.05145 18.1904 4.05145 15.4172V8.87856C4.4271 -1.01834 18.5764 -1.01085 18.9485 8.87856V15.4172H18.9485ZM21.5356 12.9077C21.5356 13.4918 21.0617 13.9671 20.4791 13.9671H20.4128V10.6601H20.4791C21.0617 10.6601 21.5356 11.1353 21.5356 11.7195V12.9077Z" fill="black"/>
<path d="M5 12H6.34775V13.3071H5V12Z" fill="black"/>
<path d="M7 15H8.34775V16.3071H7V15Z" fill="black"/>
<path d="M17 13H18.3477V14.3071H17V13Z" fill="black"/>
<path d="M16 16H17.3477V17.3071H16V16Z" fill="black"/>
</svg>
