<svg width="32" height="32" viewBox="0 0 32 32" fill="none" xmlns="http://www.w3.org/2000/svg">
<g clip-path="url(#clip0_43_15972)">
<path d="M29.889 0H2.11104C0.945147 0 0 0.945147 0 2.11104V29.889C0 31.0549 0.945147 32 2.11104 32H29.889C31.0549 32 32 31.0549 32 29.889V2.11104C32 0.945147 31.0549 0 29.889 0Z" fill="#2DA5D8"/>
<path d="M25.5283 9.03771L6.33835 15.3445C5.02845 15.7804 5.04851 16.4111 6.11564 16.6931L10.8523 17.9598L13.4663 23.459L13.4795 23.487C13.6632 23.4895 13.8455 23.4539 14.0148 23.3826C14.1842 23.3112 14.3369 23.2056 14.4635 23.0725L14.6202 22.9437L16.8632 21.101L21.8384 24.2343C22.7512 24.6716 23.3937 24.4423 23.6384 23.5102L26.9049 10.3629C27.1949 9.20633 26.417 8.75298 25.5283 9.03771ZM23.0409 12.0518L13.8236 19.1631L13.6748 20.9551L12.0194 17.4719L22.4195 11.8826C22.9528 11.5773 23.4423 11.7493 23.0415 12.0525L23.0409 12.0518Z" fill="white"/>
</g>
<defs>
<clipPath id="clip0_43_15972">
<rect width="32" height="32" fill="white"/>
</clipPath>
</defs>
</svg>
