<svg width="22" height="22" viewBox="0 0 22 22" fill="none" xmlns="http://www.w3.org/2000/svg">
<g clip-path="url(#clip0_43_5899)">
<path d="M13.6297 3.97523L12.2595 4.59126C11.4776 4.94286 10.5801 4.94389 9.79733 4.59405L8.41112 3.97463C8.08448 3.8287 7.7012 3.97446 7.55484 4.30014C7.40852 4.62582 7.55467 5.00815 7.88123 5.15411L9.26744 5.77354C10.3879 6.27428 11.6727 6.27282 12.7921 5.76954L14.1622 5.15351C14.4885 5.00681 14.6337 4.62418 14.4867 4.2988C14.3396 3.97343 13.9559 3.82853 13.6297 3.97523Z" fill="black"/>
<path d="M21.523 5.65661C21.4661 2.62522 18.757 -0.01181 15.7174 0.000740876C15.1647 -0.00785564 14.6164 0.0600139 14.0877 0.201942C12.0425 0.751045 9.95059 0.757321 8.03819 0.219952C7.48977 0.0658595 6.91954 -0.00781266 6.34473 0.000654911C2.02534 0.0619481 -0.826986 4.74787 1.18579 8.57925L2.97329 12.1539C2.99484 12.1969 3.01587 12.2403 3.03643 12.284C3.34966 12.9492 3.81301 13.5146 4.37316 13.9482L4.99326 20.3572C5.1891 22.3001 7.86382 22.6152 8.52344 20.7873C9.06971 19.2124 10.1883 17.4816 11.0428 17.4312C12.1106 17.4898 13.1866 19.7127 13.5644 20.8066C14.2035 22.5946 16.8098 22.3007 17.0237 20.4102L17.684 13.9622C18.2892 13.5166 18.7766 12.9271 19.1022 12.2419L20.7433 8.81944C21.2959 7.86192 21.5655 6.76887 21.523 5.65661ZM15.2503 20.7147C15.0424 20.7147 14.8575 20.5831 14.7902 20.3874C14.465 19.4416 13.9568 18.4419 13.4307 17.7132C12.6415 16.6202 11.8124 16.0915 10.9664 16.1411C9.24175 16.234 7.88157 18.6902 7.29871 20.3647C7.10792 20.8907 6.3387 20.7984 6.28354 20.2366L5.74558 14.6766C6.19846 14.8248 6.67943 14.9028 7.16817 14.8991L15.0427 14.8422C15.4751 14.8391 15.9016 14.7738 16.3109 14.6502L15.7345 20.2788C15.7089 20.5273 15.5008 20.7147 15.2503 20.7147ZM19.6096 8.19271C19.6008 8.20775 19.5926 8.22318 19.5851 8.23892L17.9421 11.6653L17.9309 11.6887C17.6653 12.2475 17.2626 12.7034 16.7743 13.0244C16.7402 13.0419 16.7079 13.0624 16.6776 13.0855C16.1918 13.3805 15.6281 13.5455 15.0333 13.5498L7.15877 13.6066C7.15115 13.6067 7.14356 13.6067 7.13593 13.6067C5.89281 13.6067 4.74592 12.8739 4.20956 11.7348C4.18474 11.682 4.15922 11.6295 4.13306 11.5772L2.34354 7.99864C2.3422 7.99593 2.34082 7.99323 2.33944 7.99056C1.40796 6.22896 1.77908 3.9545 3.26442 2.57965C4.11737 1.76711 5.21823 1.31016 6.36417 1.29306C6.81274 1.28626 7.25932 1.34386 7.68677 1.46404C9.82397 2.06459 12.1539 2.05969 14.4246 1.45003C14.837 1.33926 15.2649 1.28652 15.6976 1.2931C18.0663 1.28295 20.184 3.34371 20.228 5.70599C20.2615 6.58189 20.0477 7.44185 19.6096 8.19271Z" fill="black"/>
</g>
<defs>
<clipPath id="clip0_43_5899">
<rect width="22" height="22" fill="white"/>
</clipPath>
</defs>
</svg>
