<svg width="34" height="34" viewBox="0 0 34 34" fill="none" xmlns="http://www.w3.org/2000/svg">
<g clip-path="url(#clip0_43_15961)">
<path d="M17.0001 34.0003C26.3891 34.0003 34.0003 26.3891 34.0003 17.0001C34.0003 7.61122 26.3891 0 17.0001 0C7.61122 0 0 7.61122 0 17.0001C0 26.3891 7.61122 34.0003 17.0001 34.0003Z" fill="#55ACEE"/>
<path d="M27.4126 12.2183C26.6706 12.547 25.8834 12.7625 25.0773 12.8574C25.9256 12.3496 26.5603 11.5508 26.8632 10.6097C26.0663 11.083 25.1945 11.4167 24.2853 11.5963C23.6728 10.9444 22.8624 10.5127 21.9797 10.368C21.097 10.2233 20.1912 10.3737 19.4027 10.7959C18.6141 11.2181 17.9868 11.8885 17.6178 12.7034C17.2488 13.5182 17.1589 14.432 17.3618 15.3031C15.7457 15.2224 14.1648 14.8025 12.7216 14.0708C11.2784 13.3391 10.0053 12.312 8.98494 11.0562C8.46542 11.9509 8.30632 13.01 8.54004 14.0179C8.77375 15.0257 9.3827 15.9067 10.243 16.4815C9.59752 16.4616 8.96625 16.2871 8.40222 15.9727C8.40222 15.99 8.40222 16.0073 8.40222 16.0243C8.4026 16.9625 8.72738 17.8716 9.32149 18.5977C9.9156 19.3237 10.7425 19.822 11.662 20.0081C11.0636 20.1707 10.4361 20.1947 9.82702 20.0784C10.0865 20.8857 10.5919 21.5917 11.2724 22.0977C11.9528 22.6037 12.7745 22.8844 13.6223 22.9005C11.9171 24.2331 9.7545 24.8378 7.60547 24.583C9.46307 25.7774 11.6254 26.4113 13.8338 26.409C21.3068 26.409 25.3955 20.2171 25.3955 14.847C25.3955 14.6709 25.3916 14.4957 25.3837 14.3215C26.1795 13.7468 26.8662 13.0346 27.4115 12.2183H27.4126Z" fill="white"/>
</g>
<defs>
<clipPath id="clip0_43_15961">
<rect width="34" height="34" fill="white"/>
</clipPath>
</defs>
</svg>
