<svg width="25" height="24" viewBox="0 0 25 24" fill="none" xmlns="http://www.w3.org/2000/svg">
<path d="M13.2305 11.1499H7.23047" stroke-width="1.5" stroke-linecap="round" stroke-linejoin="round"/>
<path d="M2.23047 11.1501V6.53009C2.23047 4.49009 3.88047 2.84009 5.92047 2.84009H11.5405C13.5805 2.84009 15.2305 4.11009 15.2305 6.15009" stroke-width="1.5" stroke-linecap="round" stroke-linejoin="round"/>
<path d="M17.7104 12.1999C17.2104 12.6799 16.9705 13.4199 17.1705 14.1799C17.4205 15.1099 18.3405 15.6999 19.3005 15.6999H20.2305V17.1499C20.2305 19.3599 18.4405 21.1499 16.2305 21.1499H6.23047C4.02047 21.1499 2.23047 19.3599 2.23047 17.1499V10.1499C2.23047 7.9399 4.02047 6.1499 6.23047 6.1499H16.2305C18.4305 6.1499 20.2305 7.9499 20.2305 10.1499V11.5999H19.1505C18.5905 11.5999 18.0804 11.8199 17.7104 12.1999Z" stroke-width="1.5" stroke-linecap="round" stroke-linejoin="round"/>
<path d="M22.2307 12.6201V14.6801C22.2307 15.2401 21.7707 15.7001 21.2007 15.7001H19.2707C18.1907 15.7001 17.2007 14.9101 17.1107 13.8301C17.0507 13.2001 17.2907 12.6101 17.7107 12.2001C18.0807 11.8201 18.5907 11.6001 19.1507 11.6001H21.2007C21.7707 11.6001 22.2307 12.0601 22.2307 12.6201Z" stroke-width="1.5" stroke-linecap="round" stroke-linejoin="round"/>
</svg>
