<svg width="23" height="18" viewBox="0 0 23 18" fill="none" xmlns="http://www.w3.org/2000/svg">
<path d="M18.7029 2.61431V2.4399C18.7029 1.81528 19.2269 1.30709 19.8709 1.30709V0C18.4838 0 17.3552 1.09456 17.3552 2.4399V2.61431H12.1738V2.4399C12.1738 1.81528 12.6978 1.30709 13.3418 1.30709V0C11.9547 0 10.8262 1.09456 10.8262 2.4399V2.61431H5.64836V2.4399C5.64836 1.81528 6.17233 1.30709 6.81634 1.30709V0C5.42923 0 4.3007 1.09456 4.3007 2.4399V2.61431H0V18H23V2.61431H18.7029ZM21.6523 3.9214V5.66435H18.7029V3.9214H21.6523ZM18.8208 10.0103C18.7942 10.3838 18.4718 10.6965 18.0868 10.7222C17.3206 10.7726 16.9343 9.84634 17.5182 9.3652C17.7101 9.20835 17.8811 9.0342 18.0295 8.84655C18.1778 9.03425 18.3488 9.20861 18.5407 9.36577C18.7364 9.5261 18.8385 9.76103 18.8208 10.0103ZM17.3552 3.9214V5.66435H12.1738V3.9214H17.3552ZM12.2917 10.0103C12.2652 10.3838 11.9428 10.6965 11.5577 10.7222C10.7915 10.7726 10.4052 9.84634 10.9891 9.3652C11.181 9.20835 11.3521 9.03425 11.5004 8.84655C11.6487 9.03429 11.8198 9.20861 12.0116 9.36577C12.2073 9.5261 12.3095 9.76103 12.2917 10.0103ZM10.8262 3.9214V5.66435H5.64836V3.9214H10.8262ZM5.76624 10.0103C5.73969 10.3838 5.41728 10.6965 5.03226 10.7222C4.26602 10.7726 3.87978 9.84634 4.46363 9.3652C4.65554 9.20835 4.8266 9.0342 4.97494 8.84655C5.12327 9.03425 5.29429 9.20861 5.48615 9.36577C5.68188 9.5261 5.78394 9.76103 5.76624 10.0103ZM4.3007 3.9214V5.66435H1.34766V3.9214H4.3007ZM1.34766 16.6929V6.97144H4.30052C4.2928 7.49785 4.0367 8.00478 3.5952 8.36567C2.62012 9.13106 2.58279 10.6597 3.51367 11.4728C3.94532 11.8644 4.53636 12.0662 5.12502 12.0262C6.18406 11.9554 7.03776 11.1274 7.11076 10.1003C7.15765 9.44075 6.87545 8.79287 6.3558 8.3672C5.91313 8.00457 5.65636 7.49711 5.64863 6.97149H10.8261C10.8184 7.49789 10.5623 8.00483 10.1208 8.36567C9.14568 9.13101 9.1083 10.6597 10.0392 11.4728C10.4708 11.8644 11.0619 12.0662 11.6505 12.0262C12.7096 11.9554 13.5633 11.1274 13.6363 10.1003C13.6832 9.44075 13.401 8.79287 12.8813 8.3672C12.4386 8.00457 12.1819 7.49711 12.1741 6.97149H17.3552C17.3475 7.49789 17.0914 8.00483 16.6499 8.36571C15.6748 9.1311 15.6375 10.6598 16.5683 11.4729C17 11.8644 17.591 12.0663 18.1797 12.0263C19.2387 11.9555 20.0924 11.1275 20.1654 10.1003C20.2123 9.44079 19.9301 8.79291 19.4105 8.36724C18.9678 8.00461 18.711 7.49715 18.7033 6.97153H21.6526V16.693H1.34766V16.6929Z" fill="black"/>
</svg>
