<svg width="21" height="24" viewBox="0 0 21 24" fill="none" xmlns="http://www.w3.org/2000/svg">
<path d="M19.4178 8.81328C18.6032 7.28159 18.1726 5.55457 18.1726 3.81887V0H2.82738V3.81887C2.82738 5.55457 2.39684 7.28164 1.58227 8.81324C0.00629688 11.7765 -0.409427 15.2015 0.411687 18.4572L1.80956 24H19.1905L20.5883 18.4572C21.4094 15.2015 20.9937 11.7765 19.4178 8.81328ZM19.2284 18.1125L18.0982 22.5937H11.2014V18.2743L14.1026 15.3658L13.1107 14.3715L10.5 16.9887L7.88933 14.3715L6.89746 15.3658L9.79864 18.2743V22.5937H2.90177L1.77159 18.1125C1.03618 15.1965 1.40856 12.1289 2.82009 9.47479C3.74257 7.74027 4.23012 5.78444 4.23012 3.81883V1.40626H16.7699V3.81887C16.7699 5.78454 17.2575 7.74031 18.1799 9.47483C19.5915 12.1289 19.9638 15.1965 19.2284 18.1125Z" fill="black"/>
<path d="M9.79883 4.83203H11.2016V6.23838H9.79883V4.83203Z" fill="black"/>
</svg>
