<svg width="191" height="42" viewBox="0 0 191 42" fill="none" xmlns="http://www.w3.org/2000/svg">
<path d="M33.4405 40.3053L34.3676 40.5311C37.0062 41.1734 39.6633 39.5457 40.3028 36.8961L47.4412 7.31636C48.0807 4.66641 46.4601 1.99783 43.8219 1.35554L42.8947 1.12981C40.2561 0.487515 37.599 2.11519 36.9595 4.76481L29.8211 34.3445C29.1816 36.9945 30.8022 39.663 33.4405 40.3053Z" fill="url(#paint0_linear_43_5621)"/>
<path style="mix-blend-mode:multiply" opacity="0.5" d="M33.4405 40.3053L34.3676 40.5311C37.0062 41.1734 39.6633 39.5457 40.3028 36.8961L47.4412 7.31636C48.0807 4.66641 46.4601 1.99783 43.8219 1.35554L42.8947 1.12981C40.2561 0.487515 37.599 2.11519 36.9595 4.76481L29.8211 34.3445C29.1816 36.9945 30.8022 39.663 33.4405 40.3053Z" fill="url(#paint1_linear_43_5621)"/>
<path d="M62.417 32.9222C60.1138 24.9497 58.8466 20.5458 58.4679 19.201C58.3574 18.811 58.1008 17.9713 57.7844 16.7538C57.2938 14.8665 56.8449 13.1541 56.4414 11.6255C55.6721 8.7099 55.0704 6.47451 54.6788 5.05295C54.4391 4.18326 53.9462 2.37806 52.7628 1.19122C52.2358 0.662956 51.6708 0.370401 51.0918 0.208165C50.7396 0.0765153 50.3669 0.00537109 49.969 0.00537109C49.8879 0.00537109 49.8101 0.0106903 49.7333 0.0170068C49.4523 0.00603599 49.1726 0.00537109 48.8962 0.00537109H42.2126C40.3361 0.00537109 38.6634 1.48909 37.7548 2.88837C36.8766 4.24078 36.6128 5.65402 36.4489 6.59884C36.3989 6.88641 36.3685 7.12777 36.3496 7.29665C36.4853 6.91301 37.9736 2.83751 40.2013 2.79097C42.1643 2.75007 44.0167 5.70356 44.7297 8.37113C45.3573 10.7199 46.5062 14.8768 47.7108 19.2033C48.1832 20.9002 48.6642 22.6229 49.1253 24.2732C50.0438 27.5585 50.8068 31.2596 52.2309 35.9741C52.9422 38.3295 53.3054 39.2939 54.1415 40.03C55.6258 41.3365 57.6884 41.1211 58.4117 41.0453C59.168 40.9661 59.7394 40.7211 59.8681 40.6646C60.1614 40.5353 60.5679 40.3518 61.0267 39.9452C61.4885 39.5363 61.7973 39.0838 61.9867 38.7607C61.9867 38.7607 62.2862 38.2607 62.4832 37.5762C63.0095 35.7457 62.5183 33.386 62.417 32.9222Z" fill="url(#paint2_linear_43_5621)"/>
<path d="M15.2221 1.38816L14.295 1.16254C11.6565 0.520488 8.99933 2.14816 8.36004 4.79804L1.1579 34.6512C0.518605 37.3011 2.13927 39.9698 4.77775 40.6118L5.70492 40.8375C8.3434 41.4795 11.0006 39.8518 11.6398 37.202L18.842 7.34875C19.4813 4.69886 17.8606 2.03022 15.2221 1.38816Z" fill="url(#paint3_linear_43_5621)"/>
<path style="mix-blend-mode:multiply" opacity="0.5" d="M15.2221 1.38816L14.295 1.16254C11.6565 0.520488 8.99933 2.14816 8.36004 4.79804L1.1579 34.6512C0.518605 37.3011 2.13927 39.9698 4.77775 40.6118L5.70492 40.8375C8.3434 41.4795 11.0006 39.8518 11.6398 37.202L18.842 7.34875C19.4813 4.69886 17.8606 2.03022 15.2221 1.38816Z" fill="url(#paint4_linear_43_5621)"/>
<path d="M33.6115 32.6712C31.8733 28.6306 31.7048 25.6834 29.8995 19.21C29.6691 18.3845 29.4403 17.5647 29.2159 16.7621C28.7253 14.8742 28.2765 13.161 27.873 11.6314C27.1037 8.71486 26.5019 6.47814 26.1103 5.05626C25.8706 4.18624 25.3778 2.38037 24.1944 1.19286C23.6674 0.664265 23.1023 0.37171 22.5234 0.209474C22.1712 0.0778243 21.7985 0.00634766 21.4006 0.00634766C21.3195 0.00634766 21.2417 0.0116668 21.1649 0.0179834C20.8838 0.00701256 20.6041 0.00634766 20.3277 0.00634766H13.6441C10.6405 0.00634766 9.18632 2.89068 9.18632 2.89068C8.89469 3.32087 8.7176 3.70053 8.60869 3.97313C8.31276 4.71416 8.14593 5.59948 8.14527 5.60214C8.01286 6.17827 7.88045 6.75474 7.74805 7.33087C7.87748 6.96452 9.38295 2.83582 11.6329 2.79327C13.5971 2.75637 15.4455 5.69689 16.1612 8.3761C16.7888 10.7258 17.9378 14.8845 19.1424 19.2133C19.6147 20.9108 20.0957 22.6342 20.5568 24.2851C21.9832 29.7739 23.0653 33.8234 23.6624 35.991C23.9021 36.861 24.395 38.6669 25.5784 39.8544C26.1053 40.383 26.6704 40.6756 27.2493 40.8378C27.6015 40.9694 27.9743 41.0409 28.3721 41.0409C28.4532 41.0409 28.531 41.0356 28.6078 41.0293C28.8889 41.0403 29.1686 41.0409 29.445 41.0409H36.1282C36.8581 40.9631 37.4096 40.7128 37.7545 40.5176C37.8548 40.4608 38.1408 40.2939 38.4828 40.0097C38.6807 39.8451 39.018 39.5612 39.3765 39.0785C39.7469 38.5798 39.9525 38.1203 40.0717 37.8511C40.1845 37.5954 40.4139 37.0758 40.5351 36.4541C40.5569 36.3414 40.6228 35.9824 40.6675 35.7347C40.7314 35.381 40.7529 35.263 40.7668 35.1845C40.8171 34.8966 40.8562 34.6582 40.883 34.492C40.5559 35.7656 39.7155 38.5289 38.2511 38.6978C36.3689 38.9149 34.4976 34.732 33.6115 32.6715V32.6712Z" fill="url(#paint5_linear_43_5621)"/>
<path d="M69.3184 10.7961H72.2843L76.0182 21.2484C76.4684 22.6047 76.9185 23.9611 77.3952 25.3175H77.5276C77.9778 23.9611 78.4015 22.6047 78.8517 21.2484L82.5591 10.7961H85.525V30.3176H83.2211V19.5196C83.2211 17.8441 83.4065 15.477 83.5389 13.7749H83.433L81.8971 18.2164L78.2161 28.3495H76.5743L72.8934 18.2164L71.3574 13.7749H71.2515C71.3574 15.477 71.5428 17.8441 71.5428 19.5196V30.3176H69.3184V10.7961Z" fill="black"/>
<path d="M93.4707 10.7959H104.672V12.897H95.9335V19.014H103.295V21.1151H95.9335V28.2162H104.964V30.3173H93.4707V10.7959Z" fill="black"/>
<path d="M111.689 10.7959H116.562C122.52 10.7959 125.725 14.3066 125.725 20.5034C125.725 26.7003 122.52 30.3173 116.668 30.3173H111.689V10.7959ZM116.35 28.296C120.931 28.296 123.182 25.4237 123.182 20.5034C123.182 15.5832 120.931 12.8172 116.35 12.8172H114.152V28.296H116.35Z" fill="black"/>
<path d="M132.531 10.7959H134.994V30.3173H132.531V10.7959Z" fill="black"/>
<path d="M141.824 20.5833C141.824 14.28 145.505 10.4502 150.431 10.4502C152.788 10.4502 154.641 11.6204 155.753 12.8704L154.429 14.4662C153.423 13.3758 152.126 12.6045 150.457 12.6045C146.776 12.6045 144.34 15.6364 144.34 20.5035C144.34 25.3705 146.67 28.5089 150.378 28.5089C152.231 28.5089 153.635 27.6844 154.88 26.328L156.23 27.8706C154.694 29.6525 152.788 30.6631 150.272 30.6631C145.452 30.6631 141.824 26.9131 141.824 20.5833Z" fill="black"/>
<path d="M162.48 10.7959H164.943V28.2162H173.417V30.3173H162.48V10.7959Z" fill="black"/>
<path d="M179.508 10.7959H190.709V12.897H181.971V19.014H189.332V21.1151H181.971V28.2162H191.001V30.3173H179.508V10.7959Z" fill="black"/>
<defs>
<linearGradient id="paint0_linear_43_5621" x1="34.3421" y1="38.9576" x2="42.8857" y2="3.15804" gradientUnits="userSpaceOnUse">
<stop offset="0.08" stop-color="#451AFF"/>
<stop offset="0.33" stop-color="#7400FF"/>
<stop offset="0.45" stop-color="#8200FF"/>
<stop offset="0.58" stop-color="#9700FF"/>
<stop offset="0.78" stop-color="#B300FF"/>
<stop offset="1" stop-color="#C400FF"/>
</linearGradient>
<linearGradient id="paint1_linear_43_5621" x1="33.4573" y1="40.7937" x2="43.6019" y2="1.98493" gradientUnits="userSpaceOnUse">
<stop/>
<stop offset="0.06" stop-color="#272727"/>
<stop offset="0.18" stop-color="#707070"/>
<stop offset="0.29" stop-color="#A9A9A9"/>
<stop offset="0.38" stop-color="#D3D3D3"/>
<stop offset="0.46" stop-color="#ECECEC"/>
<stop offset="0.5" stop-color="#F6F6F6"/>
<stop offset="0.54" stop-color="#ECECEC"/>
<stop offset="0.62" stop-color="#D2D2D2"/>
<stop offset="0.71" stop-color="#A8A8A8"/>
<stop offset="0.82" stop-color="#6E6E6E"/>
<stop offset="0.94" stop-color="#252525"/>
<stop offset="1"/>
</linearGradient>
<linearGradient id="paint2_linear_43_5621" x1="44.1424" y1="0.00636851" x2="55.222" y2="42.1402" gradientUnits="userSpaceOnUse">
<stop stop-color="#8600FF"/>
<stop offset="0.1" stop-color="#AE00FF"/>
<stop offset="0.22" stop-color="#DA00FF"/>
<stop offset="0.32" stop-color="#F500FF"/>
<stop offset="0.38" stop-color="#FF00FF"/>
<stop offset="0.69" stop-color="#E81095"/>
<stop offset="1" stop-color="#FF2C4C"/>
</linearGradient>
<linearGradient id="paint3_linear_43_5621" x1="11.085" y1="4.06118" x2="3.67238" y2="36.4885" gradientUnits="userSpaceOnUse">
<stop stop-color="#00BAFF"/>
<stop offset="0.37" stop-color="#00FFAE"/>
<stop offset="0.7" stop-color="#98FF00"/>
<stop offset="0.79" stop-color="#BCFF0A"/>
<stop offset="0.93" stop-color="#ECFF17"/>
<stop offset="1" stop-color="#FFFF1D"/>
</linearGradient>
<linearGradient id="paint4_linear_43_5621" x1="11.085" y1="4.06118" x2="3.67238" y2="36.4885" gradientUnits="userSpaceOnUse">
<stop/>
<stop offset="0.16" stop-color="#424242"/>
<stop offset="0.48" stop-color="#C2C2C2"/>
<stop offset="0.62" stop-color="#F6F6F6"/>
<stop offset="1" stop-color="white"/>
</linearGradient>
<linearGradient id="paint5_linear_43_5621" x1="16.5154" y1="1.96946" x2="30.8754" y2="36.5413" gradientUnits="userSpaceOnUse">
<stop stop-color="#09D1A1"/>
<stop offset="0.49" stop-color="#00E3FF"/>
<stop offset="0.99" stop-color="#0066FF"/>
</linearGradient>
</defs>
</svg>
